<svg width="21" height="21" viewBox="0 0 21 21" fill="none" xmlns="http://www.w3.org/2000/svg">
<path fill-rule="evenodd" clip-rule="evenodd" d="M10.6328 2.17102C11.6861 2.23848 12.5193 3.10289 12.5193 4.15973V4.23486C14.7445 5.0546 16.2693 7.16632 16.2693 9.57398L16.267 15.1668H17.5834C17.9286 15.1668 18.2084 15.4466 18.2084 15.7918C18.2084 16.137 17.9286 16.4168 17.5834 16.4168H14.2501C14.2232 16.4168 14.1967 16.4151 14.1708 16.4118H13.0923C13.0217 17.6853 12.0102 18.7113 10.7327 18.8233L10.5001 18.8335C9.20265 18.7917 8.14549 17.8112 8.00349 16.5576L7.9912 16.4118H6.82939C6.80342 16.4151 6.77695 16.4168 6.75008 16.4168H3.41675C3.07157 16.4168 2.79175 16.137 2.79175 15.7918C2.79175 15.4466 3.07157 15.1668 3.41675 15.1668H4.816L4.81418 9.57398C4.81418 7.23928 6.24799 5.18286 8.36385 4.31291L8.56418 4.23486V4.15973C8.56418 3.10289 9.39743 2.23848 10.4507 2.17102H10.6328ZM10.5306 3.41846C10.126 3.44438 9.81418 3.77152 9.81418 4.15973V5.08937L8.83918 5.46901C7.16549 6.15716 6.06418 7.77426 6.06418 9.57398V15.1618H15.0193V9.57398C15.0193 7.71469 13.8444 6.05515 12.0872 5.4078L11.2693 5.10649V4.15973C11.2693 3.80494 11.0088 3.50115 10.6552 3.4317L10.5649 3.41932L10.5306 3.41846Z" fill="#5B78FF"/>
</svg>
