<svg width="25" height="25" viewBox="0 0 25 25" fill="none" xmlns="http://www.w3.org/2000/svg">
<path fill-rule="evenodd" clip-rule="evenodd" d="M21.5 12.5229V4.42265C21.5 3.91315 21.087 3.50012 20.5775 3.50012H12.4772C12.2326 3.50012 11.9979 3.59732 11.8249 3.77032L4.29743 11.2978C3.23419 12.361 3.23419 14.0849 4.29743 15.1481L9.852 20.7027C10.9152 21.7659 12.6391 21.7659 13.7023 20.7027L21.2298 13.1752C21.4028 13.0022 21.5 12.7676 21.5 12.5229ZM19.6549 12.1408L12.3977 19.398C12.055 19.7407 11.4994 19.7407 11.1567 19.398L5.60208 13.8435C5.25938 13.5008 5.25938 12.9452 5.60208 12.6025L12.8594 5.34518H19.6549V12.1408ZM15.1773 11.6229C14.1832 11.6229 13.3773 10.8169 13.3773 9.82281C13.3773 8.82873 14.1832 8.02275 15.1773 8.02275C16.1714 8.02275 16.9774 8.82873 16.9774 9.82281C16.9774 10.8169 16.1714 11.6229 15.1773 11.6229Z" fill="#C2CFE0"/>
</svg>
