<svg width="25" height="25" viewBox="0 0 25 25" fill="none" xmlns="http://www.w3.org/2000/svg">
<path fill-rule="evenodd" clip-rule="evenodd" d="M18.5 14.5001C17.3954 14.5001 16.5 13.6047 16.5 12.5001C16.5 11.3956 17.3954 10.5001 18.5 10.5001C19.6046 10.5001 20.5 11.3956 20.5 12.5001C20.5 13.6047 19.6046 14.5001 18.5 14.5001ZM12.5 14.5001C11.3954 14.5001 10.5 13.6047 10.5 12.5001C10.5 11.3956 11.3954 10.5001 12.5 10.5001C13.6046 10.5001 14.5 11.3956 14.5 12.5001C14.5 13.6047 13.6046 14.5001 12.5 14.5001ZM4.5 12.5001C4.5 13.6047 5.39543 14.5001 6.5 14.5001C7.60457 14.5001 8.5 13.6047 8.5 12.5001C8.5 11.3956 7.60457 10.5001 6.5 10.5001C5.39543 10.5001 4.5 11.3956 4.5 12.5001Z" fill="#828292"/>
<mask id="mask0_598_488" style="mask-type:alpha" maskUnits="userSpaceOnUse" x="4" y="10" width="17" height="5">
<path fill-rule="evenodd" clip-rule="evenodd" d="M18.5 14.5001C17.3954 14.5001 16.5 13.6047 16.5 12.5001C16.5 11.3956 17.3954 10.5001 18.5 10.5001C19.6046 10.5001 20.5 11.3956 20.5 12.5001C20.5 13.6047 19.6046 14.5001 18.5 14.5001ZM12.5 14.5001C11.3954 14.5001 10.5 13.6047 10.5 12.5001C10.5 11.3956 11.3954 10.5001 12.5 10.5001C13.6046 10.5001 14.5 11.3956 14.5 12.5001C14.5 13.6047 13.6046 14.5001 12.5 14.5001ZM4.5 12.5001C4.5 13.6047 5.39543 14.5001 6.5 14.5001C7.60457 14.5001 8.5 13.6047 8.5 12.5001C8.5 11.3956 7.60457 10.5001 6.5 10.5001C5.39543 10.5001 4.5 11.3956 4.5 12.5001Z" fill="white"/>
</mask>
<g mask="url(#mask0_598_488)">
</g>
</svg>
