<svg width="25" height="25" viewBox="0 0 25 25" fill="none" xmlns="http://www.w3.org/2000/svg">
<path d="M21.34 4.72012C21.29 4.60012 21.23 4.49012 21.16 4.38012C21.02 4.17012 20.83 3.98012 20.62 3.84012C20.51 3.77012 20.4 3.71012 20.28 3.66012C20.04 3.56012 19.78 3.50012 19.5 3.50012H18.5V1.50012H16.5V3.50012H8.5V1.50012H6.5V3.50012H5.5C5.08 3.50012 4.7 3.63012 4.38 3.84012C4.17 3.98012 3.98 4.17012 3.84 4.38012C3.77 4.49012 3.71 4.60012 3.66 4.72012C3.56 4.96012 3.5 5.22012 3.5 5.50012V19.5001C3.5 20.6001 4.39 21.5001 5.5 21.5001H19.5C19.78 21.5001 20.04 21.4401 20.28 21.3401C20.4 21.2901 20.51 21.2301 20.62 21.1601C20.83 21.0201 21.02 20.8301 21.16 20.6201C21.37 20.3001 21.5 19.9101 21.5 19.5001V5.50012C21.5 5.22012 21.44 4.96012 21.34 4.72012ZM5.5 19.5001V5.50012H19.5V19.5001H5.5ZM12.5 13.3801C10.47 13.3801 6.5 14.4601 6.5 16.9601V18.5001H18.5V16.9701C18.5 14.4601 14.53 13.3801 12.5 13.3801ZM8.81 16.5001C9.5 15.9401 11.19 15.3801 12.5 15.3801C13.81 15.3801 15.51 15.9401 16.19 16.5001H8.81ZM12.5 12.5001C14.15 12.5001 15.5 11.1501 15.5 9.50012C15.5 7.85012 14.15 6.50012 12.5 6.50012C10.85 6.50012 9.5 7.85012 9.5 9.50012C9.5 11.1501 10.85 12.5001 12.5 12.5001ZM12.5 8.50012C13.05 8.50012 13.5 8.95012 13.5 9.50012C13.5 10.0501 13.05 10.5001 12.5 10.5001C11.95 10.5001 11.5 10.0501 11.5 9.50012C11.5 8.95012 11.95 8.50012 12.5 8.50012Z" fill="#C2CFE0"/>
</svg>
