<svg width="25" height="24" viewBox="0 0 25 24" fill="none" xmlns="http://www.w3.org/2000/svg">
<path fill-rule="evenodd" clip-rule="evenodd" d="M19.0301 20.9027C20.0096 21.283 21.0481 20.4967 20.9259 19.4645L20.5328 16.1442L20.7299 15.9184C21.8827 14.5498 22.5 12.9387 22.5 11.2368C22.5 6.63889 17.992 3.00012 12.5 3.00012C7.00801 3.00012 2.5 6.63889 2.5 11.2368C2.5 15.8346 7.00801 19.4734 12.5 19.4734C13.2105 19.4734 13.9502 19.4018 14.7876 19.2559L19.0301 20.9027ZM18.8142 15.1818L18.5821 15.4169L19.0094 19.0001L14.7928 17.3751L14.5935 17.4118C13.8026 17.5574 13.1308 17.6272 12.5 17.6272C8.05529 17.6272 4.5 14.7781 4.5 11.3137C4.5 7.84925 8.05529 5.00012 12.5 5.00012C16.9447 5.00012 20.5 7.84925 20.5 11.3137C20.5 12.7282 19.9182 14.0633 18.8142 15.1818ZM9.37066 10.6081C8.86837 10.6081 8.46092 10.207 8.46092 9.71184C8.46092 9.21671 8.86837 8.8156 9.37066 8.8156L15.6293 8.8156C16.1316 8.8156 16.5391 9.21671 16.5391 9.71184C16.5391 10.207 16.1316 10.6081 15.6293 10.6081L9.37066 10.6081ZM8.46092 12.7617C8.46092 13.2568 8.86837 13.6579 9.37066 13.6579L13.2823 13.6579C13.7846 13.6579 14.1921 13.2568 14.1921 12.7617C14.1921 12.2666 13.7846 11.8654 13.2823 11.8654L9.37066 11.8654C8.86837 11.8654 8.46092 12.2666 8.46092 12.7617Z" fill="#828292"/>
</svg>
