<svg width="24" height="24" viewBox="0 0 24 24" fill="none" xmlns="http://www.w3.org/2000/svg">
<path d="M16.7567 11.7811C16.9131 11.6403 17.0011 11.4493 17.0011 11.2501C17.0011 11.051 16.9131 10.86 16.7567 10.7191C16.6002 10.5783 16.388 10.4992 16.1667 10.4992C15.9454 10.4992 15.7331 10.5783 15.5767 10.7191L10.3333 15.4396L8.42333 13.7191C8.34585 13.6494 8.25387 13.5941 8.15264 13.5563C8.05141 13.5186 7.94291 13.4992 7.83333 13.4992C7.72376 13.4992 7.61526 13.5186 7.51403 13.5563C7.4128 13.5941 7.32081 13.6494 7.24333 13.7191C7.16585 13.7889 7.10439 13.8716 7.06246 13.9627C7.02053 14.0539 6.99895 14.1515 6.99895 14.2501C6.99895 14.3487 7.02053 14.4464 7.06246 14.5375C7.10439 14.6286 7.16585 14.7114 7.24333 14.7811L9.74333 17.0311C9.82074 17.101 9.9127 17.1564 10.0139 17.1942C10.1152 17.232 10.2237 17.2515 10.3333 17.2515C10.4429 17.2515 10.5515 17.232 10.6527 17.1942C10.754 17.1564 10.8459 17.101 10.9233 17.0311L16.7567 11.7811ZM9.5 0.00012238C8.98279 -0.00012165 8.47823 0.144014 8.05585 0.412664C7.63347 0.681315 7.31407 1.06126 7.14167 1.50012H4.5C3.83696 1.50012 3.20107 1.73718 2.73223 2.15913C2.26339 2.58109 2 3.15339 2 3.75012V21.7501C2 22.3469 2.26339 22.9192 2.73223 23.3411C3.20107 23.7631 3.83696 24.0001 4.5 24.0001H19.5C20.163 24.0001 20.7989 23.7631 21.2678 23.3411C21.7366 22.9192 22 22.3469 22 21.7501V3.75012C22 3.15339 21.7366 2.58109 21.2678 2.15913C20.7989 1.73718 20.163 1.50012 19.5 1.50012H16.8583C16.6859 1.06126 16.3665 0.681315 15.9442 0.412664C15.5218 0.144014 15.0172 -0.00012165 14.5 0.00012238H9.5ZM8.66667 2.25012C8.66667 2.05121 8.75446 1.86044 8.91074 1.71979C9.06702 1.57914 9.27899 1.50012 9.5 1.50012H14.5C14.721 1.50012 14.933 1.57914 15.0893 1.71979C15.2455 1.86044 15.3333 2.05121 15.3333 2.25012C15.3333 2.44903 15.2455 2.6398 15.0893 2.78045C14.933 2.9211 14.721 3.00012 14.5 3.00012H9.5C9.27899 3.00012 9.06702 2.9211 8.91074 2.78045C8.75446 2.6398 8.66667 2.44903 8.66667 2.25012ZM4.5 3.00012H7.14167C7.31407 3.43899 7.63347 3.81893 8.05585 4.08758C8.47823 4.35623 8.98279 4.50037 9.5 4.50012H14.5C15.0172 4.50037 15.5218 4.35623 15.9442 4.08758C16.3665 3.81893 16.6859 3.43899 16.8583 3.00012H19.5C19.721 3.00012 19.933 3.07914 20.0893 3.21979C20.2455 3.36044 20.3333 3.55121 20.3333 3.75012V21.7501C20.3333 21.949 20.2455 22.1398 20.0893 22.2805C19.933 22.4211 19.721 22.5001 19.5 22.5001H4.5C4.27899 22.5001 4.06702 22.4211 3.91074 22.2805C3.75446 22.1398 3.66667 21.949 3.66667 21.7501V3.75012C3.66667 3.55121 3.75446 3.36044 3.91074 3.21979C4.06702 3.07914 4.27899 3.00012 4.5 3.00012Z" fill="#5B78FF"/>
</svg>
