<svg width="24" height="24" viewBox="0 0 24 24" fill="none" xmlns="http://www.w3.org/2000/svg">
<path d="M12 0.00012207C5.37253 0.00012207 0 5.37265 0 12.0001C0 18.6276 5.37253 24.0001 12 24.0001C18.6275 24.0001 24 18.6276 24 12.0001C24 5.37265 18.6275 0.00012207 12 0.00012207Z" fill="#5B78FF"/>
<path d="M18.7759 6.5606L16.6325 17.3671C16.6325 17.3671 16.3327 18.1165 15.5084 17.7568L10.5623 13.9648L8.76384 13.0955L5.73628 12.0763C5.73628 12.0763 5.27165 11.9115 5.22665 11.5518C5.18165 11.192 5.75128 10.9972 5.75128 10.9972L17.7865 6.27597C17.7865 6.27597 18.7759 5.84116 18.7759 6.5606Z" fill="white"/>
<path d="M10.1826 17.2453C10.1826 17.2453 10.0382 17.2318 9.85822 16.6622C9.6785 16.0926 8.76384 13.0955 8.76384 13.0955L16.0333 8.47884C16.0333 8.47884 16.4531 8.22402 16.4381 8.47884C16.4381 8.47884 16.513 8.52384 16.2881 8.73365C16.0633 8.94355 10.5778 13.8745 10.5778 13.8745" fill="#C2CFE0"/>
<path d="M12.4587 15.4186L10.5024 17.2023C10.5024 17.2023 10.3498 17.3181 10.1826 17.2453L10.5568 13.9325" fill="#C2CFE0"/>
</svg>
