<svg width="24" height="24" viewBox="0 0 24 24" fill="none" xmlns="http://www.w3.org/2000/svg">
<path fill-rule="evenodd" clip-rule="evenodd" d="M19.8845 5.00012C20.4621 5.00012 20.9371 5.43384 20.9942 5.98963L21 6.10233V17.8976C21 18.0117 20.9821 18.1251 20.9468 18.2338C20.7715 18.7749 20.2127 19.0892 19.662 18.9778L19.5442 18.9473L13.4544 17.0209C12.8048 18.1439 11.5852 18.872 10.2252 18.872C8.23377 18.872 6.60799 17.3252 6.51129 15.3813L6.50674 15.1979L6.50648 14.8208L5.77952 14.5914V9.53929L19.535 5.05561C19.6478 5.01885 19.7657 5.00012 19.8845 5.00012ZM8.37878 15.4149C8.48743 16.3272 9.27265 17.0349 10.2252 17.0349C10.7632 17.0349 11.2574 16.807 11.6012 16.4339L8.37878 15.4149ZM19.1401 7.11878L7.63807 10.8681V13.2507L19.1401 16.8907V7.11878ZM4.84593 9.5493V14.5714L4.36549 14.547C3.63831 14.4741 3.07037 13.8989 3.00607 13.1873L3 13.0524V11.0517C3 10.2656 3.61101 9.62054 4.38937 9.55481L4.52057 9.5493H4.84593Z" fill="#828292"/>
</svg>
