<svg width="24" height="24" viewBox="0 0 24 24" fill="none" xmlns="http://www.w3.org/2000/svg">
<circle cx="12" cy="12.0001" r="12" fill="#FF6B00"/>
<path d="M16.2707 8.68944C16.8008 8.68944 17.2307 8.25963 17.2307 7.72944C17.2307 7.19924 16.8008 6.76944 16.2707 6.76944C15.7405 6.76944 15.3107 7.19924 15.3107 7.72944C15.3107 8.25963 15.7405 8.68944 16.2707 8.68944Z" fill="white"/>
<path d="M12 7.8921C11.1876 7.8921 10.3933 8.13303 9.71775 8.58443C9.0422 9.03582 8.51567 9.6774 8.20474 10.428C7.89382 11.1787 7.81246 12.0047 7.97097 12.8015C8.12948 13.5984 8.52073 14.3304 9.09524 14.9049C9.66976 15.4794 10.4017 15.8707 11.1986 16.0292C11.9955 16.1877 12.8215 16.1063 13.5721 15.7954C14.3227 15.4845 14.9643 14.9579 15.4157 14.2824C15.8671 13.6068 16.108 12.8126 16.108 12.0001C16.108 10.9106 15.6752 9.86571 14.9048 9.09531C14.1344 8.32491 13.0895 7.8921 12 7.8921ZM12 14.6668C11.4726 14.6668 10.957 14.5104 10.5185 14.2174C10.08 13.9243 9.73819 13.5079 9.53636 13.0206C9.33452 12.5333 9.28172 11.9971 9.38461 11.4799C9.4875 10.9626 9.74148 10.4874 10.1144 10.1145C10.4874 9.74154 10.9625 9.48757 11.4798 9.38468C11.9971 9.28178 12.5333 9.33459 13.0205 9.53642C13.5078 9.73826 13.9243 10.0801 14.2173 10.5186C14.5103 10.9571 14.6667 11.4727 14.6667 12.0001C14.6667 12.7073 14.3858 13.3856 13.8857 13.8857C13.3856 14.3858 12.7073 14.6668 12 14.6668Z" fill="white"/>
<path d="M12 5.44146C14.136 5.44146 14.3893 5.44946 15.2327 5.48812C15.7399 5.49414 16.2423 5.58728 16.718 5.76346C17.0631 5.89658 17.3765 6.10049 17.6381 6.36204C17.8996 6.6236 18.1035 6.93701 18.2367 7.28212C18.4128 7.75781 18.506 8.26023 18.512 8.76746C18.5507 9.61079 18.5587 9.86412 18.5587 12.0008C18.5587 14.1375 18.5507 14.3895 18.512 15.2328C18.506 15.74 18.4128 16.2424 18.2367 16.7181C18.1035 17.0632 17.8996 17.3766 17.6381 17.6382C17.3765 17.8998 17.0631 18.1037 16.718 18.2368C16.2423 18.413 15.7399 18.5061 15.2327 18.5121C14.3893 18.5508 14.136 18.5588 12 18.5588C9.864 18.5588 9.61067 18.5508 8.76733 18.5121C8.26011 18.5061 7.75769 18.413 7.282 18.2368C6.93689 18.1037 6.62348 17.8998 6.36192 17.6382C6.10036 17.3766 5.89646 17.0632 5.76333 16.7181C5.58715 16.2424 5.49402 15.74 5.488 15.2328C5.44933 14.3895 5.44133 14.1361 5.44133 12.0001C5.44133 9.86412 5.44933 9.61079 5.488 8.76746C5.49402 8.26023 5.58715 7.75781 5.76333 7.28212C5.89646 6.93701 6.10036 6.6236 6.36192 6.36204C6.62348 6.10049 6.93689 5.89658 7.282 5.76346C7.75769 5.58728 8.26011 5.49414 8.76733 5.48812C9.61067 5.44946 9.864 5.44146 12 5.44146ZM12 4.00012C9.82733 4.00012 9.55467 4.00946 8.70133 4.04812C8.03785 4.06152 7.38144 4.1873 6.76 4.42012C6.22848 4.62565 5.74577 4.93997 5.34281 5.34293C4.93985 5.74589 4.62553 6.2286 4.42 6.76012C4.18711 7.38177 4.06132 8.03841 4.048 8.70212C4.00933 9.55546 4 9.82679 4 12.0001C4 14.1735 4.00933 14.4455 4.048 15.2988C4.0614 15.9623 4.18718 16.6187 4.42 17.2401C4.62553 17.7716 4.93985 18.2543 5.34281 18.6573C5.74577 19.0603 6.22848 19.3746 6.76 19.5801C7.38165 19.813 8.03829 19.9388 8.702 19.9521C9.55533 19.9908 9.82733 20.0001 12 20.0001C14.1727 20.0001 14.4453 19.9908 15.2987 19.9521C15.9624 19.9388 16.619 19.813 17.2407 19.5801C17.7722 19.3746 18.2549 19.0603 18.6579 18.6573C19.0608 18.2543 19.3751 17.7716 19.5807 17.2401C19.8133 16.6184 19.9389 15.9618 19.952 15.2981C19.9907 14.4448 20 14.1735 20 12.0001C20 9.82679 19.9907 9.55479 19.952 8.70146C19.9386 8.03797 19.8128 7.38156 19.58 6.76012C19.3745 6.2286 19.0601 5.74589 18.6572 5.34293C18.2542 4.93997 17.7715 4.62565 17.24 4.42012C16.6183 4.18746 15.9617 4.0619 15.298 4.04879C14.4447 4.00879 14.1733 4.00012 12 4.00012Z" fill="white"/>
</svg>
