<svg width="24" height="24" viewBox="0 0 24 24" fill="none" xmlns="http://www.w3.org/2000/svg">
<circle cx="12" cy="12.0001" r="12" fill="#FFBB00"/>
<path d="M18.8571 6.00012H5.14286C4.83975 6.00012 4.54906 6.12655 4.33474 6.35159C4.12041 6.57664 4 6.88186 4 7.20012V16.8001C4 17.1184 4.12041 17.4236 4.33474 17.6487C4.54906 17.8737 4.83975 18.0001 5.14286 18.0001H18.8571C19.1602 18.0001 19.4509 17.8737 19.6653 17.6487C19.8796 17.4236 20 17.1184 20 16.8001V7.20012C20 6.88186 19.8796 6.57664 19.6653 6.35159C19.4509 6.12655 19.1602 6.00012 18.8571 6.00012ZM17.6 7.20012L12 11.2681L6.4 7.20012H17.6ZM5.14286 16.8001V7.74612L11.6743 12.4921C11.7699 12.5618 11.8836 12.5991 12 12.5991C12.1164 12.5991 12.2301 12.5618 12.3257 12.4921L18.8571 7.74612V16.8001H5.14286Z" fill="white"/>
</svg>
