<svg width="24" height="24" viewBox="0 0 24 24" fill="none" xmlns="http://www.w3.org/2000/svg">
<circle cx="12" cy="12.0001" r="12" fill="#374899"/>
<path d="M14.2497 14.8469L15.4128 13.6837C15.5685 13.528 15.7664 13.4214 15.9821 13.3771C16.1978 13.3328 16.4218 13.3527 16.6263 13.4345L18.0428 14.0015C18.2516 14.0851 18.4305 14.2292 18.5566 14.4154C18.6826 14.6017 18.75 14.8214 18.75 15.0462V17.6222C18.7504 17.7753 18.7195 17.9269 18.6592 18.0677C18.599 18.2084 18.5106 18.3354 18.3996 18.4408C18.2886 18.5463 18.1572 18.6279 18.0136 18.6808C17.8699 18.7337 17.7169 18.7567 17.564 18.7485C7.63494 18.1306 5.62959 9.72085 5.25729 6.50047C5.23926 6.34304 5.25476 6.18356 5.30278 6.03255C5.35081 5.88153 5.43025 5.74239 5.53591 5.62428C5.64156 5.50617 5.77102 5.41177 5.91577 5.34728C6.06052 5.2828 6.21729 5.24968 6.37576 5.25013H8.90606C9.13093 5.25012 9.35065 5.31749 9.53686 5.44355C9.72308 5.5696 9.86726 5.74856 9.95079 5.95734L10.5173 7.37385C10.599 7.57831 10.619 7.80227 10.5747 8.01798C10.5304 8.23368 10.4238 8.43164 10.2681 8.58733L9.10493 9.75044C9.10493 9.75044 9.74984 14.2845 14.2497 14.8469Z" fill="white"/>
</svg>
