<svg width="24" height="24" viewBox="0 0 24 24" fill="none" xmlns="http://www.w3.org/2000/svg">
<circle cx="12" cy="12.0001" r="12" fill="#81AEF1"/>
<path d="M19.5 7.03947C19.2947 7.36747 19.0616 7.67463 18.8036 7.9571C18.5442 8.24137 18.2625 8.50135 17.9614 8.73416C17.9711 8.87754 17.9761 9.02123 17.9764 9.16498C17.9764 9.82091 17.9111 10.4688 17.7793 11.1099C17.648 11.7487 17.4563 12.3716 17.2071 12.9692C16.8621 13.811 16.406 14.596 15.8529 15.3004C15.3227 15.9739 14.7016 16.5597 14.01 17.0385C13.3159 17.5162 12.5596 17.882 11.7654 18.1241C10.9366 18.3771 10.0784 18.5037 9.21643 18.5C8.38513 18.5012 7.55791 18.3761 6.75964 18.1287C5.9596 17.8802 5.19822 17.5075 4.5 17.0225C5.3059 17.1264 6.1231 17.0598 6.90483 16.8264C7.68656 16.5931 8.41747 16.1976 9.05571 15.6626C8.57824 15.6555 8.10902 15.5287 7.68597 15.2925C7.26292 15.0562 6.89789 14.7172 6.62036 14.3028C6.43107 14.0242 6.28392 13.7157 6.18429 13.3886C6.28179 13.4046 6.37821 13.4183 6.47357 13.4286C6.84133 13.4669 7.21257 13.4325 7.56857 13.3268C7.21742 13.253 6.88144 13.1129 6.57643 12.9132C6.28088 12.7195 6.01734 12.4751 5.79643 12.1898C5.34291 11.6041 5.09645 10.8673 5.1 10.1077V10.07C5.53071 10.3294 5.99679 10.4677 6.49929 10.4837C6.08028 10.1793 5.73628 9.77162 5.49643 9.29525C5.37897 9.0603 5.28798 8.81136 5.22536 8.55361C5.09779 8.00816 5.10037 7.43732 5.23286 6.8932C5.30036 6.61551 5.40536 6.35154 5.54786 6.10128C5.93786 6.61666 6.37286 7.07947 6.85071 7.48743C7.80044 8.29979 8.89785 8.89319 10.0736 9.23011C10.667 9.39972 11.2759 9.50049 11.8896 9.53065C11.86 9.40874 11.8393 9.28457 11.8275 9.15926C11.8154 9.03359 11.8093 8.90734 11.8093 8.78101C11.8093 8.32734 11.8896 7.9011 12.0514 7.50343C12.3651 6.71763 12.9518 6.09187 13.6886 5.75731C14.0667 5.58471 14.4741 5.49718 14.8854 5.5002C15.3072 5.49801 15.7249 5.5892 16.112 5.76799C16.4991 5.94679 16.8472 6.20931 17.1343 6.53895C17.8217 6.39421 18.4806 6.1244 19.0821 5.74132C18.8591 6.50281 18.3787 7.14874 17.7343 7.55371C18.3437 7.47817 18.9389 7.3052 19.5 7.04062V7.03947Z" fill="white"/>
</svg>
