<svg width="24" height="24" viewBox="0 0 24 24" fill="none" xmlns="http://www.w3.org/2000/svg">
<circle cx="12" cy="12.0001" r="12" fill="#45C777"/>
<path fill-rule="evenodd" clip-rule="evenodd" d="M15.6659 13.5881C15.4662 13.4888 14.4876 13.0101 14.3054 12.9435C14.1231 12.8775 13.9905 12.8448 13.8572 13.0435C13.7246 13.2408 13.3434 13.6875 13.2275 13.8195C13.111 13.9521 12.9951 13.9681 12.7961 13.8695C12.5972 13.7695 11.9554 13.5608 11.1951 12.8861C10.6036 12.3608 10.2037 11.7121 10.0878 11.5135C9.97193 11.3155 10.0751 11.2081 10.1749 11.1095C10.2647 11.0208 10.3739 10.8781 10.4737 10.7628C10.5735 10.6468 10.6063 10.5641 10.6726 10.4315C10.7396 10.2995 10.7061 10.1841 10.6559 10.0848C10.6063 9.98547 10.2084 9.01014 10.0423 8.61348C9.88083 8.22748 9.71671 8.28014 9.5948 8.27348C9.47824 8.26814 9.3456 8.26681 9.21297 8.26681C9.08033 8.26681 8.86463 8.31614 8.68243 8.51481C8.49955 8.71281 7.98576 9.19214 7.98576 10.1675C7.98576 11.1421 8.6985 12.0841 8.79831 12.2168C8.89813 12.3488 10.2017 14.3501 12.1986 15.2081C12.6742 15.4121 13.0447 15.5341 13.3334 15.6248C13.8103 15.7761 14.2444 15.7548 14.5874 15.7035C14.9692 15.6468 15.765 15.2241 15.9311 14.7615C16.0966 14.2988 16.0966 13.9021 16.047 13.8195C15.9975 13.7368 15.8648 13.6875 15.6652 13.5881H15.6659ZM12.0338 18.5235H12.0311C10.8451 18.5237 9.68079 18.2064 8.66032 17.6048L8.41916 17.4621L5.91249 18.1168L6.5817 15.6848L6.42428 15.4355C5.76119 14.385 5.41028 13.1693 5.4121 11.9288C5.41344 8.29548 8.38366 5.33948 12.0365 5.33948C13.805 5.33948 15.4676 6.02615 16.7176 7.27148C17.3341 7.88253 17.8228 8.60919 18.1553 9.40941C18.4878 10.2096 18.6576 11.0675 18.6549 11.9335C18.6535 15.5668 15.6833 18.5235 12.0338 18.5235ZM17.6688 6.32548C16.9307 5.5861 16.0525 4.99984 15.0851 4.60068C14.1178 4.20152 13.0804 3.9974 12.0331 4.00015C7.64278 4.00015 4.06833 7.55681 4.06699 11.9281C4.06632 13.3255 4.43274 14.6895 5.13008 15.8915L4 20.0001L8.22289 18.8975C9.39107 19.5309 10.7002 19.8628 12.0305 19.8628H12.0338C16.4242 19.8628 19.9986 16.3061 20 11.9341C20.0032 10.8923 19.7988 9.86021 19.3987 8.8975C18.9986 7.93479 18.4106 7.06059 17.6688 6.32548Z" fill="white"/>
</svg>
