<svg width="24" height="25" viewBox="0 0 24 25" fill="none" xmlns="http://www.w3.org/2000/svg">
<g clip-path="url(#clip0_19_4526)">
<path d="M23.3338 24.1148C23.3279 24.0847 23.319 24.0552 23.3074 24.0268C23.2956 23.9988 23.2812 23.972 23.2642 23.9468C23.2302 23.8953 23.1861 23.8512 23.1346 23.8172C23.1094 23.8003 23.0826 23.7859 23.0546 23.774C23.0263 23.7622 22.9968 23.7533 22.9666 23.7476C22.8759 23.7299 22.7819 23.7393 22.6965 23.7748C22.6112 23.8102 22.5381 23.8701 22.4866 23.9468C22.4696 23.972 22.4552 23.9988 22.4434 24.0268C22.4318 24.0552 22.423 24.0847 22.417 24.1148C22.4051 24.1753 22.4051 24.2375 22.417 24.298C22.423 24.3281 22.4318 24.3576 22.4434 24.386C22.4551 24.414 22.4696 24.4408 22.4866 24.466C22.5295 24.5301 22.5874 24.5826 22.6554 24.619C22.7233 24.6554 22.7991 24.6746 22.8762 24.6748C22.9068 24.6749 22.9374 24.672 22.9674 24.666C22.9976 24.6598 23.027 24.6507 23.0554 24.6388C23.1413 24.6037 23.2147 24.5435 23.2658 24.466C23.2828 24.4408 23.2973 24.414 23.309 24.386C23.3206 24.3576 23.3295 24.3281 23.3354 24.298C23.3479 24.2376 23.3479 24.1753 23.3354 24.1148H23.3338Z" fill="#828292"/>
<path d="M22.4894 10.1679H20.4204L20.3156 9.75275C20.7904 9.4993 21.1989 9.13757 21.5079 8.69684C21.8169 8.25612 22.0178 7.74879 22.0943 7.21595C22.204 7.20373 22.3058 7.15324 22.3818 7.07334C22.4579 6.99344 22.5034 6.88927 22.5102 6.77915L22.6918 3.84715C22.6918 3.83755 22.6918 3.82795 22.6918 3.81835V3.64875C22.6918 3.61515 22.6918 3.58101 22.6918 3.54635C22.6794 3.14249 22.5835 2.74558 22.4101 2.38069C22.2366 2.01579 21.9894 1.69084 21.684 1.42635C21.3724 1.1537 21.0083 0.947632 20.6141 0.820794C20.22 0.693956 19.8041 0.649021 19.3919 0.688745H19.3799C19.3599 0.688745 17.3805 0.935945 16.1528 1.00475C15.8706 1.03145 15.6029 1.14236 15.3844 1.32309C15.1659 1.50383 15.0068 1.74605 14.9276 2.01835C14.7453 2.49746 14.6544 3.00653 14.6597 3.51915V4.15435C14.6597 4.16501 14.6597 4.17595 14.6597 4.18715L14.6781 4.45195C14.1141 4.20574 13.4967 4.10745 12.8842 4.16635H12.8722C12.8562 4.16635 11.8261 4.29595 10.6928 4.40635C10.3661 3.31712 9.69384 2.36386 8.77764 1.69058C7.86143 1.0173 6.75105 0.66059 5.61427 0.674345C4.8121 0.654808 4.01686 0.827193 3.29474 1.17716C2.57262 1.52712 1.9445 2.04453 1.46266 2.68635C0.439859 4.15069 -0.0743037 5.91031 -0.000918802 7.69515V7.72635C-0.00594648 8.34297 0.122967 8.95334 0.376909 9.51524C0.63085 10.0771 1.00376 10.5772 1.46986 10.9808C1.20021 11.18 0.981082 11.4398 0.830092 11.7393C0.679102 12.0387 0.600466 12.3694 0.600508 12.7048V17.5288C0.600508 17.6531 0.649885 17.7723 0.737777 17.8602C0.781297 17.9038 0.832962 17.9383 0.889823 17.9619C0.946684 17.9854 1.00763 17.9976 1.06917 17.9976H5.57908V23.7368H1.12436C1.00006 23.7368 0.880853 23.7861 0.792961 23.8741C0.70507 23.962 0.655693 24.0812 0.655693 24.2056C0.655693 24.3299 0.70507 24.4491 0.792961 24.537C0.880853 24.625 1.00006 24.6744 1.12436 24.6744H21.1186C21.2429 24.6744 21.3621 24.625 21.45 24.537C21.5379 24.4491 21.5873 24.3299 21.5873 24.2056C21.5873 24.0812 21.5379 23.962 21.45 23.8741C21.3621 23.7861 21.2429 23.7368 21.1186 23.7368H18.4122V17.5768H23.5235C23.5851 17.5768 23.6461 17.5646 23.7031 17.541C23.76 17.5174 23.8117 17.4828 23.8552 17.4392C23.8987 17.3955 23.9332 17.3438 23.9567 17.2868C23.9802 17.2298 23.9923 17.1688 23.9922 17.1072V11.6712C23.9918 11.2726 23.8333 10.8905 23.5516 10.6087C23.2698 10.3269 22.8878 10.1684 22.4894 10.1679ZM19.5935 9.05435C19.4873 9.09604 19.4 9.17501 19.3479 9.27648C19.2957 9.37795 19.2824 9.49495 19.3103 9.60555L19.5343 10.4951L18.6745 11.0319L17.8148 10.4951L18.0387 9.60555C18.0666 9.49495 18.0533 9.37795 18.0012 9.27648C17.9491 9.17501 17.8617 9.09604 17.7556 9.05435C17.3838 8.90808 17.0522 8.67556 16.7879 8.37595L16.8134 7.96555V7.92955C16.8134 7.91995 16.8134 7.91035 16.8134 7.90075V7.69195C16.8134 7.65195 16.8134 7.61195 16.8134 7.57035C16.8134 7.51435 16.8078 7.45915 16.8039 7.40395C16.8039 7.38395 16.8039 7.36395 16.7983 7.34315C16.7983 7.30955 16.7911 7.27595 16.7871 7.24155C16.7831 7.20715 16.7799 7.18955 16.7759 7.16155C16.7719 7.13355 16.7679 7.11115 16.7639 7.08635C16.7599 7.06155 16.7527 7.02235 16.7463 6.99035L16.7391 6.95755C16.7005 6.77376 16.647 6.59343 16.5791 6.41835C16.5895 6.39995 16.5991 6.38075 16.6087 6.36235L16.6271 6.32795C16.6455 6.29195 16.6631 6.25515 16.6791 6.21835L16.6847 6.20555C16.6991 6.17275 16.7135 6.13915 16.7263 6.10555L16.7407 6.06715C16.7503 6.04155 16.7599 6.01595 16.7687 5.98715L16.7831 5.94315C16.7911 5.91861 16.7988 5.89408 16.8063 5.86955L16.819 5.82475C16.826 5.79968 16.8329 5.77461 16.8398 5.74955L16.851 5.70715C16.8582 5.67915 16.8646 5.65115 16.871 5.62715L16.8782 5.59435C16.895 5.51435 16.9094 5.43835 16.9214 5.36235L16.9262 5.32715C16.9262 5.30075 16.9342 5.27435 16.9374 5.24715L16.9422 5.20635C16.9454 5.18235 16.9481 5.15861 16.9502 5.13515L16.9542 5.09835C16.9542 5.07515 16.959 5.05195 16.9606 5.02955C16.9622 5.00715 16.9606 5.00395 16.9606 4.99115C16.9606 4.97835 16.9606 4.94315 16.9654 4.91995C16.9654 4.90955 16.9654 4.89915 16.9654 4.88875C16.9654 4.85595 16.9654 4.82315 16.9702 4.79195C18.1237 5.07451 19.3284 5.07314 20.4812 4.78795L20.5172 4.77915C20.5236 4.84155 20.5292 4.90635 20.5356 4.97195C20.5468 5.09355 20.5588 5.21995 20.5732 5.34715V5.36955C20.5774 5.40848 20.5822 5.44715 20.5876 5.48555V5.51275C20.5913 5.54155 20.5956 5.57035 20.6004 5.59915L20.6068 5.64235C20.6121 5.67488 20.6177 5.70741 20.6236 5.73995C20.6236 5.75915 20.6308 5.77915 20.6348 5.79835L20.6435 5.84395C20.6595 5.92181 20.6782 5.99861 20.6995 6.07435C20.7627 6.3242 20.8771 6.55821 21.0354 6.76155L21.0546 6.78395C21.069 6.80075 21.0826 6.81675 21.0978 6.83195C21.113 6.84715 21.145 6.88075 21.1698 6.90235C21.1366 7.37323 20.971 7.82514 20.6921 8.20591C20.4132 8.58669 20.0323 8.88082 19.5935 9.05435ZM17.0342 9.75195L16.9294 10.1679H16.6759L16.7143 9.55435C16.8172 9.62598 16.924 9.69195 17.0342 9.75195ZM15.5946 3.51915C15.5946 2.77755 15.8273 1.96315 16.2032 1.94235C17.4381 1.87355 19.3399 1.63995 19.4871 1.62235C19.7707 1.59591 20.0568 1.62753 20.3278 1.71528C20.5988 1.80303 20.8491 1.94507 21.0634 2.13275C21.2718 2.31278 21.4406 2.53403 21.5593 2.78255C21.6779 3.03107 21.7438 3.30149 21.7528 3.57675C21.7528 3.60075 21.7528 3.62448 21.7528 3.64795V3.80315L21.6257 5.85675L21.6209 5.84155C21.6153 5.82075 21.6089 5.79995 21.6033 5.77755L21.5993 5.76155C21.5379 5.47274 21.4965 5.18005 21.4753 4.88555C21.4597 4.60984 21.4187 4.33615 21.3529 4.06795C21.3489 4.05435 21.3441 4.04075 21.3385 4.02795L21.333 4.01515C21.333 4.00635 21.325 3.99755 21.321 3.98955L21.313 3.97515L21.3026 3.95435L21.2938 3.94075L21.2786 3.91915L21.273 3.90475L21.253 3.88235L21.2418 3.87435L21.2122 3.84715L21.2026 3.83915L21.1802 3.82235L21.1666 3.81355L21.1458 3.79995L21.1314 3.79195L21.113 3.77915L21.0978 3.77195L21.073 3.76235L21.0602 3.75755L21.0218 3.74635H21.0154L20.9819 3.73995H20.9675H20.9403H20.9019H20.8659H20.8499C20.8308 3.74093 20.8119 3.74307 20.7931 3.74635L20.2653 3.87435C19.2248 4.13191 18.1364 4.12421 17.0998 3.85195L16.6343 3.73275C16.5649 3.71451 16.4923 3.71243 16.422 3.72668C16.3517 3.74094 16.2857 3.77113 16.2289 3.81495C16.1721 3.85877 16.1261 3.91504 16.0945 3.97943C16.0629 4.04382 16.0464 4.11461 16.0465 4.18635V4.56075C16.0465 4.59861 16.0465 4.63621 16.0465 4.67355C16.0465 4.68715 16.0465 4.70155 16.0465 4.71515C16.0465 4.72875 16.0465 4.76155 16.0465 4.78475C16.0465 4.80795 16.0465 4.81595 16.0465 4.83115C16.0465 4.84635 16.0465 4.87355 16.0465 4.89435C16.0465 4.91515 16.0465 4.92395 16.0465 4.93915C16.0465 4.95435 16.0465 4.98075 16.0409 5.00155C16.0353 5.02235 16.0409 5.03115 16.0361 5.04555C16.0313 5.05995 16.0313 5.08635 16.0289 5.10555C16.0265 5.12475 16.0249 5.13355 16.0233 5.14795C16.0217 5.16235 16.0177 5.18795 16.0145 5.20715C16.0113 5.22635 15.9945 5.23435 15.9945 5.24635C15.9945 5.25835 15.9881 5.28635 15.9841 5.30555L15.9769 5.34155C15.9769 5.35995 15.9697 5.37835 15.9657 5.39595C15.8721 5.28829 15.7722 5.18625 15.6666 5.09035L15.5946 4.13835V3.51915ZM12.9818 5.09915C13.6748 5.03406 14.3661 5.24119 14.9092 5.67675L14.9148 5.68235C15.2132 5.92332 15.4554 6.22668 15.6242 6.57115C15.7809 6.89276 15.8675 7.24396 15.8785 7.60155C15.8785 7.63248 15.8785 7.66288 15.8785 7.69275V7.88635L15.6962 10.8231C15.6563 10.7706 15.6225 10.7137 15.5954 10.6535L15.585 10.6303L15.5674 10.5887L15.5586 10.5663C15.4271 10.1346 15.3492 9.68832 15.3267 9.23755V9.21915C15.3081 8.88767 15.2594 8.55858 15.1811 8.23595C15.146 8.12141 15.0685 8.02457 14.9645 7.96512C14.8605 7.90567 14.7378 7.88809 14.6213 7.91595L13.9719 8.07595C12.678 8.39619 11.3245 8.38656 10.0354 8.04795L9.46516 7.89755C9.39548 7.87909 9.32249 7.87696 9.25186 7.89131C9.18122 7.90567 9.11485 7.93613 9.0579 7.98033C9.00095 8.02452 8.95496 8.08126 8.9235 8.14613C8.89205 8.211 8.87597 8.28225 8.87653 8.35435V8.81355C8.87653 8.82395 8.87653 8.83435 8.87653 8.84395C8.87653 8.85355 8.87653 8.86795 8.87653 8.87995C8.92225 9.59123 8.71487 10.2957 8.2911 10.8687L8.11115 8.29995V7.53275C8.11115 7.49968 8.11115 7.46662 8.11115 7.43355C8.11115 7.42395 8.11115 7.41435 8.11115 7.40555C8.11115 7.38155 8.11115 7.35755 8.11115 7.33355C8.11115 7.32395 8.11115 7.31435 8.11115 7.30395C8.11115 7.27995 8.11115 7.25515 8.11515 7.23115V7.20555C8.11515 7.17941 8.11728 7.15275 8.12155 7.12555V7.10635C8.12155 7.07755 8.12714 7.04795 8.13034 7.01915V7.01195C8.14769 6.85053 8.17439 6.69026 8.21032 6.53195L8.21832 6.49915L8.23032 6.45115L8.24551 6.39515L8.25111 6.37515C8.38627 5.90315 8.60621 5.54955 8.89093 5.49515H8.89572C8.9116 5.49237 8.92762 5.4905 8.94371 5.48955C10.4761 5.40715 12.813 5.11995 12.9818 5.09915ZM12.8794 14.9768L13.1729 16.124L11.9956 16.8736L10.8184 16.124L11.1119 14.9768C11.1403 14.8659 11.1271 14.7485 11.075 14.6467C11.0228 14.5449 10.9353 14.4657 10.8288 14.424C10.6839 14.3671 10.5434 14.3 10.4081 14.2232L10.3961 14.2143C9.94291 13.9506 9.56125 13.5798 9.28449 13.1343C9.00774 12.6889 8.84432 12.1824 8.80855 11.6591C9.64831 11.0391 9.79707 9.68075 9.81306 8.95915L9.83625 8.96475C11.266 9.33357 12.7649 9.34099 14.1982 8.98635L14.3582 8.94635C14.371 9.05915 14.3821 9.18155 14.3933 9.30555L14.4053 9.43595V9.47515L14.4101 9.52555L14.4141 9.56795L14.4189 9.61755C14.4216 9.64528 14.4245 9.67195 14.4277 9.69755L14.4325 9.73995L14.4381 9.79115L14.4437 9.83515L14.4501 9.88715L14.4557 9.92875L14.4653 9.99675V10.0247C14.4696 10.0546 14.4741 10.0842 14.4789 10.1135L14.4837 10.1423C14.4875 10.1658 14.4914 10.189 14.4957 10.2119L14.5005 10.2391C14.5053 10.2669 14.5106 10.2935 14.5165 10.3191V10.3303C14.5808 10.8278 14.813 11.2885 15.1747 11.6359C15.1747 11.6423 15.1747 11.6479 15.1747 11.6535C15.1747 11.6591 15.1747 11.6592 15.1747 11.6615C15.1397 12.1839 14.9774 12.6897 14.7021 13.135C14.4268 13.5802 14.0468 13.9513 13.5952 14.216L13.5824 14.224C13.4476 14.3005 13.3076 14.3673 13.1633 14.424C13.0567 14.4655 12.9689 14.5447 12.9166 14.6465C12.8643 14.7484 12.8511 14.8658 12.8794 14.9768ZM0.936412 7.72715V7.69515C0.936412 3.99995 2.77588 1.61515 5.61427 1.61515C6.51711 1.59722 7.4022 1.8673 8.14131 2.38626C8.88041 2.90522 9.43513 3.6461 9.72509 4.50155L9.44997 4.52315H9.42117H9.36679H9.3228H9.27961L9.19964 4.52875H9.17245L9.10926 4.53275H9.08047H9.01729H8.9941L8.91412 4.53755C8.65331 4.55643 8.40196 4.64312 8.18495 4.78905C7.96794 4.93499 7.7928 5.13509 7.67688 5.36955H6.29407C5.1316 5.36282 4.00224 4.98158 3.0734 4.28235C3.00533 4.22409 2.922 4.18656 2.83328 4.17421C2.74455 4.16186 2.65414 4.1752 2.57276 4.21267C2.49138 4.25013 2.42244 4.31013 2.3741 4.38557C2.32577 4.46102 2.30006 4.54874 2.30002 4.63835V7.19035C2.30002 7.30551 2.30589 7.42059 2.31761 7.53515C2.36633 8.01648 2.5206 8.48113 2.76944 8.89598C3.01827 9.31082 3.35554 9.66565 3.7572 9.93515C3.80359 9.96635 3.85077 9.99595 3.89876 10.0247C3.94675 10.0535 3.99713 10.0831 4.04752 10.1095L3.96034 10.5583H2.74389C2.7047 10.5583 2.66392 10.5583 2.62713 10.5583H2.59833L2.51116 10.5655H2.50236C2.01842 10.2681 1.61979 9.85027 1.34535 9.35282C1.07091 8.85538 0.930017 8.29528 0.936412 7.72715ZM7.18342 10.1103L7.19701 10.1023C7.2298 10.0847 7.26259 10.0663 7.29458 10.0471L7.33057 10.5591H7.27139L7.18342 10.1103ZM7.30898 6.32395C7.30152 6.35595 7.29432 6.38848 7.28739 6.42155L7.27939 6.45915C7.27139 6.49968 7.26366 6.54075 7.2562 6.58235C7.2562 6.60395 7.249 6.62555 7.245 6.64715C7.241 6.66875 7.2378 6.69195 7.2346 6.71435C7.2314 6.73675 7.2274 6.76155 7.22421 6.78555C7.22101 6.80955 7.21861 6.82955 7.21541 6.85195C7.21221 6.87435 7.20981 6.89835 7.20661 6.92155C7.20021 6.96368 7.19701 7.00555 7.19701 7.04715C7.19701 7.06635 7.19701 7.08475 7.19301 7.10395C7.18901 7.12315 7.18822 7.16155 7.18662 7.19115C7.18502 7.22075 7.18662 7.22955 7.18662 7.24875C7.18662 7.26795 7.18662 7.31115 7.18662 7.34235C7.18662 7.35835 7.18662 7.37515 7.18662 7.39115C7.18662 7.43835 7.18662 7.48635 7.18662 7.53355V8.31355C7.18662 8.32421 7.18662 8.33515 7.18662 8.34635L7.2282 8.94475L7.19461 8.97515L7.16262 9.00315C7.13943 9.02315 7.11544 9.04235 7.09064 9.06155L7.06665 9.08075C7.03413 9.10528 7.00107 9.12928 6.96748 9.15275L6.94429 9.16795C6.91789 9.18555 6.8915 9.20315 6.86431 9.21915L6.82752 9.24075L6.75634 9.28155L6.71715 9.30235L6.64117 9.33995L6.60598 9.35675C6.56919 9.37355 6.5316 9.38955 6.49321 9.40475C6.39112 9.44483 6.30631 9.51946 6.25355 9.61565C6.2008 9.71183 6.18344 9.82348 6.2045 9.93115L6.37325 10.7967L5.62546 11.2847L4.87688 10.7967L5.02884 10.0159L5.03763 9.93035C5.05885 9.82267 5.04156 9.71095 4.98879 9.61473C4.93601 9.51851 4.85111 9.4439 4.74892 9.40395C4.30246 9.23147 3.91885 8.92751 3.64881 8.53226C3.37877 8.13701 3.23501 7.66908 3.23655 7.19035V5.51035C4.17209 6.03036 5.2238 6.30554 6.29407 6.31035H7.31298L7.30898 6.32395ZM4.23226 11.5103L4.25226 11.5191C4.27096 11.5282 4.28912 11.5384 4.30664 11.5495L5.35834 12.2359C5.43447 12.2856 5.52339 12.312 5.61427 12.312C5.70515 12.312 5.79406 12.2856 5.87019 12.2359L6.92109 11.5543C6.93813 11.5435 6.95575 11.5336 6.97388 11.5247L6.99467 11.5151L7.02586 11.5023H7.39296V11.5359C7.39445 11.555 7.39712 11.574 7.40095 11.5927V11.6079C7.40095 11.6231 7.40815 11.6375 7.41375 11.6519V11.6623C7.41996 11.6796 7.42717 11.6964 7.43534 11.7127L7.44174 11.7239C7.44867 11.7367 7.45614 11.7493 7.46414 11.7615L7.47213 11.7735C7.4825 11.7883 7.49371 11.8025 7.50572 11.8159L7.51052 11.8207C7.52142 11.8325 7.5329 11.8437 7.54491 11.8544L7.55611 11.8639C7.56837 11.8741 7.5809 11.8834 7.5937 11.8919L7.6001 11.8967C7.6153 11.9065 7.63106 11.9153 7.64728 11.9232H7.65208C7.62599 12.09 7.56615 12.2498 7.47621 12.3927C7.38628 12.5356 7.26814 12.6587 7.12903 12.7544C6.84511 12.9344 6.41724 12.88 5.82061 12.5879C5.75638 12.5564 5.6858 12.5401 5.61427 12.5401C5.54274 12.5401 5.47215 12.5564 5.40793 12.5879C4.8113 12.8808 4.38262 12.9352 4.0995 12.7551C3.93839 12.6468 3.80501 12.5021 3.71012 12.3327C3.61523 12.1633 3.5615 11.974 3.55326 11.78C3.55326 11.6416 3.59005 11.5552 3.62444 11.5327C3.63756 11.5244 3.65118 11.517 3.66523 11.5103L3.69082 11.4983H4.19947L4.23226 11.5103ZM5.66705 16.9896C5.66065 17.0093 5.65452 17.0293 5.64866 17.0496V17.056H1.53784V12.7048C1.53815 12.4203 1.63872 12.1451 1.82187 11.9275C2.00501 11.7099 2.259 11.5639 2.53915 11.5151L2.56234 11.5111H2.58954L2.62313 11.5071H2.64072C2.62427 11.5982 2.61597 11.6906 2.61593 11.7831C2.62521 12.1343 2.7194 12.478 2.89043 12.7848C3.06147 13.0915 3.30427 13.3523 3.59805 13.5448C3.91019 13.7072 4.25749 13.7905 4.60935 13.7871C4.96122 13.7838 5.30687 13.6939 5.61587 13.5255C5.96675 13.691 6.34782 13.7828 6.73555 13.7951C7.05131 13.7994 7.36156 13.7121 7.62889 13.544C7.8405 13.4075 8.02559 13.2338 8.17513 13.0311C8.48721 13.7828 9.01379 14.4259 9.6891 14.88V15.7944H7.31618H7.2362H7.20821L7.15542 15.7984H7.12183L7.07545 15.804L7.03946 15.8096L6.99787 15.8168L6.95948 15.824L6.93069 15.8304C6.89763 15.8378 6.86484 15.8464 6.83232 15.856L6.81552 15.8744L6.76034 15.892L6.74514 15.8976L6.68836 15.9184H6.67956C6.44289 16.0122 6.22962 16.1567 6.05471 16.3418C5.8798 16.5268 5.74749 16.7479 5.66705 16.9896ZM6.51641 23.7368V17.536C6.51641 17.532 6.51641 17.528 6.51641 17.524C6.51641 17.4992 6.51641 17.4744 6.52041 17.4504C6.54188 17.2545 6.63488 17.0734 6.78159 16.9418C6.92829 16.8103 7.11837 16.7376 7.31538 16.7376H8.56782L9.60752 23.7392L6.51641 23.7368ZM9.51635 16.736H10.0338L10.5137 17.0408L10.1138 20.7648L9.51635 16.736ZM10.556 23.7376L10.3481 22.3376L11.6613 23.6824C11.681 23.7024 11.7024 23.7206 11.7253 23.7368L10.556 23.7376ZM10.9655 21.628L11.3966 17.6032L11.7453 17.8256C11.8209 17.8721 11.908 17.8968 11.9968 17.8968C12.0856 17.8968 12.1727 17.8721 12.2484 17.8256L12.5971 17.6032L13.0289 21.628L11.9956 22.684L10.9655 21.628ZM13.4352 23.7368H12.2668C12.2897 23.7206 12.3111 23.7024 12.3307 23.6824L13.644 22.3376L13.4352 23.7368ZM13.4768 17.0408L13.9567 16.736H14.4749L13.8775 20.7648L13.4768 17.0408ZM17.4757 23.7368H14.3845L15.4242 16.7352H16.6767C16.7015 16.7352 16.7255 16.7352 16.7495 16.7352H16.7751L16.8214 16.7424L16.851 16.748L16.8926 16.7584L16.9206 16.7664C16.9406 16.7728 16.9606 16.78 16.9806 16.788L17.011 16.8016L17.0438 16.8176L17.0734 16.8336L17.107 16.8536L17.1318 16.8696C17.1502 16.8824 17.1677 16.8952 17.1853 16.9096C17.2029 16.924 17.2189 16.9392 17.2349 16.9552L17.2469 16.968C17.2597 16.9816 17.2725 16.9952 17.2845 17.0096L17.2949 17.0224C17.3082 17.0384 17.3208 17.0549 17.3325 17.072L17.3381 17.0792C17.3651 17.1196 17.3884 17.1625 17.4077 17.2072L17.4149 17.224C17.4536 17.3192 17.4734 17.4211 17.4733 17.524L17.4757 23.7368ZM18.1635 16.6384L18.1435 16.6072L18.1123 16.5592L18.0827 16.5176L18.0539 16.4792L18.0227 16.44L17.9843 16.3952L17.9499 16.3568C17.9323 16.3376 17.9139 16.3184 17.8955 16.3L17.8707 16.2768L17.8172 16.228L17.7972 16.2104C17.5462 15.9972 17.2396 15.8601 16.9134 15.8152H16.8918L16.8118 15.8072H16.7855C16.7503 15.8072 16.7159 15.8072 16.6799 15.8072H14.2974V14.8824C14.7882 14.5532 15.2028 14.1226 15.5131 13.6196C15.8233 13.1166 16.0222 12.5528 16.0961 11.9663H16.1264H16.172C16.2827 11.955 16.3857 11.9049 16.4629 11.8248C16.5401 11.7446 16.5863 11.6398 16.5935 11.5287L16.6199 11.1072H17.0246H17.0294L17.3733 11.3223L16.9694 15.092C16.962 15.1606 16.9698 15.2301 16.9924 15.2953C17.0149 15.3606 17.0516 15.4201 17.0998 15.4696L18.2394 16.6368L18.1635 16.6384ZM17.9235 14.9744L18.2578 11.8743L18.4282 11.9808C18.5026 12.0271 18.5885 12.0517 18.6761 12.0517C18.7638 12.0517 18.8497 12.0271 18.924 11.9808L19.0944 11.8743L19.4263 14.9728L18.6761 15.7416L17.9235 14.9744ZM23.0533 16.6384H19.1136L20.2509 15.4744C20.2991 15.4249 20.3357 15.3654 20.3583 15.3001C20.3808 15.2349 20.3886 15.1654 20.3812 15.0968L19.9773 11.3271L20.3212 11.1128H20.3268H22.4862C22.6361 11.113 22.7798 11.1726 22.8858 11.2786C22.9918 11.3847 23.0514 11.5284 23.0517 11.6783V16.6456L23.0533 16.6384Z" fill="#828292"/>
</g>
<defs>
<clipPath id="clip0_19_4526">
<rect width="24" height="24" fill="white" transform="translate(0 0.674805)"/>
</clipPath>
</defs>
</svg>
