<svg width="24" height="25" viewBox="0 0 24 25" fill="none" xmlns="http://www.w3.org/2000/svg">
<path d="M15.4341 17.3151V16.8786C15.553 16.7774 15.6667 16.6697 15.7747 16.556C16.6477 15.5528 17.1974 14.2892 17.3465 12.9429C18.1311 12.8184 18.8384 12.3798 19.3184 11.7201C19.9771 10.7484 20.0393 9.34962 19.486 7.59529C19.4543 7.49424 19.3908 7.40736 19.3057 7.34884L19.0561 7.17388C19.0925 5.59163 18.5685 4.05096 17.5844 2.84685C16.3623 1.41047 14.486 0.683342 12.0013 0.674876C9.51661 0.66641 7.64026 1.40953 6.4182 2.8271C5.43409 4.03121 4.91008 5.57188 4.94649 7.15412L4.69685 7.33003C4.61181 7.38855 4.54827 7.47543 4.51661 7.57648C3.96686 9.34021 4.02634 10.7296 4.68514 11.7013C5.16339 12.3656 5.87061 12.8096 6.65702 12.9392C6.80607 14.287 7.35605 15.5522 8.22966 16.5569C8.33779 16.6706 8.4515 16.7783 8.57033 16.8796V17.316C6.83006 17.666 -0.115695 19.3676 0.00146466 24.2045C0.00146466 24.3292 0.0489398 24.4488 0.133446 24.5371C0.217953 24.6253 0.332568 24.6748 0.452078 24.6748H23.5478C23.6673 24.6748 23.7819 24.6253 23.8664 24.5371C23.9509 24.4488 23.9984 24.3292 23.9984 24.2045C24.1201 19.3676 17.1743 17.666 15.4341 17.3151ZM6.38034 11.8819C5.99423 11.7467 5.65768 11.4901 5.41693 11.1472L5.43946 11.1519C5.2032 10.6707 5.07253 10.1406 5.05694 9.60009C5.04136 9.05959 5.14124 8.52225 5.34934 8.02705L5.67919 7.79753C5.74802 7.75014 5.80307 7.68395 5.83835 7.60616C5.87363 7.52837 5.88778 7.44197 5.87926 7.35636C5.80274 5.93817 6.24501 4.54256 7.11665 3.4517C8.14314 2.23825 9.79239 1.63058 12.0004 1.62118C14.2084 1.61177 15.8567 2.23731 16.9022 3.4517C17.7725 4.54211 18.2141 5.93655 18.1377 7.35354C18.1292 7.43915 18.1434 7.52555 18.1787 7.60334C18.2139 7.68113 18.269 7.74732 18.3378 7.79471L18.6695 8.02705C19.0741 9.407 19.0462 10.4596 18.5793 11.1519C18.3369 11.495 17.9989 11.7516 17.6114 11.8866C17.8826 11.5646 18.0881 11.1884 18.2155 10.7809C18.3428 10.3734 18.3894 9.94302 18.3522 9.51611C18.2669 8.99707 18.0075 8.52662 17.6204 8.18885C17.4249 3.44699 14.2408 2.91646 12.8692 2.91646C12.5787 2.91572 12.2885 2.93804 12.0013 2.98325C11.714 2.93801 11.4239 2.91568 11.1334 2.91646C9.77076 2.91646 6.59033 3.43759 6.38215 8.18885C5.99261 8.52393 5.73002 8.99274 5.64134 9.51141C5.6037 9.93821 5.64982 10.3685 5.77688 10.7761C5.90394 11.1837 6.10928 11.5599 6.38034 11.8819ZM16.7147 7.99413C14.809 8.10989 12.9149 7.6146 11.2866 6.57468C11.1977 6.50868 11.0889 6.4786 10.9803 6.49001C10.8717 6.50143 10.7708 6.55357 10.6963 6.63676C9.75456 7.46883 8.56403 7.93161 7.33024 7.94522C7.57537 4.59271 9.52022 3.86276 11.155 3.86276C11.4154 3.86095 11.6754 3.8833 11.9319 3.92955C11.9914 3.94222 12.0527 3.94222 12.1121 3.92955C12.3687 3.88343 12.6287 3.86108 12.889 3.86276C14.5112 3.86276 16.4642 4.61529 16.6913 7.99225L16.7147 7.99413ZM7.48885 11.9722L7.50688 11.9769C7.50889 11.858 7.46767 11.7427 7.39152 11.6542C7.12946 11.4031 6.9204 11.0978 6.77764 10.7577C6.63489 10.4176 6.56158 10.0502 6.56239 9.67885C6.59948 9.36713 6.74705 9.08121 6.97606 8.87741C8.44223 8.90027 9.87619 8.42777 11.064 7.53039C12.6001 8.45209 14.3391 8.94214 16.1109 8.95266C16.4235 8.96093 16.7363 8.94363 17.0464 8.90092C17.2692 9.09939 17.4147 9.37609 17.4555 9.67885C17.4548 10.0505 17.3801 10.418 17.2363 10.758C17.0925 11.098 16.8827 11.4032 16.6201 11.6542C16.5456 11.7418 16.5052 11.8551 16.5065 11.9722V12.2186L13.8623 13.702C13.6435 13.4859 13.3599 13.3552 13.0595 13.332C12.7591 13.3088 12.4602 13.3945 12.2132 13.5746C11.9663 13.7548 11.7865 14.0183 11.7042 14.3208C11.6218 14.6233 11.642 14.9461 11.7613 15.2349C11.8805 15.5236 12.0916 15.7606 12.3588 15.9057C12.6261 16.0509 12.9331 16.0953 13.2281 16.0316C13.5231 15.9679 13.7881 15.7998 13.9781 15.5559C14.1682 15.3119 14.2718 15.007 14.2715 14.6926C14.2715 14.6499 14.2715 14.6073 14.2715 14.5646L16.3569 13.3982C16.1788 14.3331 15.7586 15.1991 15.1421 15.9022C14.7436 16.3026 14.2708 16.6135 13.7528 16.8158C13.2348 17.018 12.6825 17.1073 12.1302 17.0781H11.8977C11.3464 17.1067 10.7953 17.0176 10.2782 16.8163C9.76111 16.6149 9.28881 16.3055 8.89026 15.9069C7.98777 14.8122 7.49064 13.4164 7.48885 11.9722ZM13.3621 14.6935C13.3621 14.777 13.3384 14.8587 13.294 14.9281C13.2495 14.9976 13.1863 15.0517 13.1123 15.0837C13.0384 15.1157 12.957 15.124 12.8786 15.1077C12.8001 15.0914 12.728 15.0512 12.6714 14.9921C12.6148 14.9331 12.5762 14.8578 12.5606 14.7759C12.545 14.694 12.553 14.609 12.5836 14.5319C12.6143 14.4547 12.6661 14.3887 12.7327 14.3423C12.7992 14.2959 12.8775 14.2711 12.9575 14.2711C13.0107 14.271 13.0634 14.2818 13.1126 14.303C13.1618 14.3242 13.2065 14.3553 13.2442 14.3945C13.2819 14.4337 13.3118 14.4803 13.3322 14.5316C13.3526 14.583 13.363 14.6379 13.363 14.6935H13.3621ZM11.5453 23.7022H0.925222C1.28571 20.1418 6.83096 18.6527 8.56582 18.2689V19.1155C8.56582 20.1916 9.81943 21.0119 11.5462 21.1492L11.5453 23.7022ZM9.47245 19.1174V17.4816C10.2277 17.8473 11.0526 18.0291 11.885 18.0131H12.1121C12.9445 18.0291 13.7695 17.8473 14.5247 17.4816V19.1174C14.5247 19.568 13.5388 20.217 12.0013 20.217C10.4638 20.217 9.47425 19.568 9.47425 19.1174H9.47245ZM12.4528 23.7163V21.1464C14.1787 21.0232 15.4332 20.1982 15.4332 19.1127V18.283C17.1824 18.6593 22.7016 20.1512 23.0738 23.7163H12.4546H12.4528Z" fill="#828292"/>
</svg>
