<svg width="24" height="25" viewBox="0 0 24 25" fill="none" xmlns="http://www.w3.org/2000/svg">
<g clip-path="url(#clip0_19_4513)">
<path d="M22.9083 8.3327L18.6434 2.41829C18.559 2.30121 18.4445 2.23544 18.3251 2.23544C18.2057 2.23544 18.0911 2.30121 18.0067 2.41829C17.9223 2.53538 17.8749 2.69419 17.8749 2.85978C17.8749 3.02536 17.9223 3.18416 18.0067 3.30125L21.9536 8.77365L19.6495 11.9689C19.6327 11.9923 19.6127 12.0108 19.5907 12.0235C19.5687 12.0361 19.5451 12.0426 19.5213 12.0426C19.4974 12.0426 19.4738 12.0361 19.4518 12.0235C19.4298 12.0108 19.4098 11.9923 19.393 11.9689L14.8363 5.64976C14.8195 5.62641 14.8061 5.59869 14.797 5.56817C14.7878 5.53765 14.7831 5.50493 14.7831 5.47189C14.7831 5.43885 14.7878 5.40614 14.797 5.37562C14.8061 5.34509 14.8195 5.31737 14.8363 5.29402L16.3846 3.14682C16.4691 3.02973 16.5165 2.87092 16.5165 2.70533C16.5165 2.53975 16.4691 2.38095 16.3846 2.26386C16.3002 2.14677 16.1857 2.08099 16.0663 2.08099C15.9469 2.08099 15.8324 2.14677 15.748 2.26386L14.1965 4.4164C14.0441 4.62811 13.9407 4.89817 13.8996 5.19193C13.8586 5.48569 13.8817 5.78976 13.9661 6.06514L13.4423 6.79153H9.78118L9.12067 5.87556C9.14657 5.74545 9.15974 5.61112 9.15984 5.47615C9.16057 5.27831 9.13289 5.08226 9.07844 4.8994C9.02398 4.71655 8.94383 4.55054 8.84265 4.41107L7.33579 2.32883C7.25136 2.21174 7.13684 2.14596 7.01744 2.14596C6.89804 2.14596 6.78352 2.21174 6.69909 2.32883C6.61466 2.44591 6.56723 2.60472 6.56723 2.77031C6.56723 2.93589 6.61466 3.0947 6.69909 3.21178L8.20596 5.30147C8.22282 5.32482 8.23619 5.35255 8.24532 5.38307C8.25444 5.41359 8.25914 5.4463 8.25914 5.47934C8.25914 5.51238 8.25444 5.5451 8.24532 5.57562C8.23619 5.60614 8.22282 5.63387 8.20596 5.65721L8.08077 5.83082L3.6485 11.9764L3.64466 11.9827C3.6104 12.0271 3.56503 12.0513 3.51815 12.0501C3.47128 12.0489 3.42658 12.0224 3.39352 11.9764L1.08944 8.78111L5.08931 3.23415C5.17374 3.11707 5.22118 2.95826 5.22118 2.79267C5.22118 2.62709 5.17374 2.46828 5.08931 2.3512C5.00488 2.23411 4.89037 2.16833 4.77097 2.16833C4.65157 2.16833 4.53705 2.23411 4.45262 2.3512L0.130948 8.33164C0.0891244 8.3896 0.0559467 8.45843 0.0333106 8.53418C0.0106744 8.60993 -0.000976562 8.69112 -0.000976562 8.77312C-0.000976562 8.85512 0.0106744 8.9363 0.0333106 9.01205C0.0559467 9.0878 0.0891244 9.15663 0.130948 9.21459L2.75682 12.8561C2.90271 13.0596 3.08785 13.2004 3.29002 13.2616C3.49218 13.3229 3.70279 13.3019 3.89657 13.2012L5.37502 15.2504C5.24991 15.5754 5.1877 15.9397 5.19447 16.308C5.20123 16.6762 5.27674 17.0357 5.41362 17.3514C5.55049 17.6671 5.74406 17.9282 5.97543 18.1091C6.20679 18.2901 6.46803 18.3848 6.73365 18.3839H6.73903C6.74025 18.9483 6.90247 19.4892 7.19027 19.8883C7.47807 20.2874 7.86807 20.5124 8.27508 20.5141C8.27444 20.8826 8.34277 21.2451 8.4734 21.5661C8.60402 21.8871 8.79246 22.1556 9.02031 22.3453C9.24815 22.5351 9.5076 22.6396 9.7733 22.6487C10.039 22.6578 10.3018 22.5711 10.5361 22.3971L11.086 23.1597C11.2735 23.4199 11.5116 23.5987 11.7711 23.6743C12.0307 23.7499 12.3005 23.7191 12.5476 23.5856C12.7947 23.4521 13.0085 23.2216 13.1627 22.9225C13.317 22.6233 13.4051 22.2683 13.4162 21.9008C13.7759 21.876 14.1146 21.6587 14.361 21.2945C14.6074 20.9304 14.7423 20.4478 14.7372 19.9485C15.1217 19.9146 15.4824 19.6787 15.7458 19.2889C16.0093 18.899 16.1556 18.3846 16.155 17.8503C16.4017 17.839 16.6424 17.7419 16.8549 17.5678C17.0674 17.3937 17.2449 17.1483 17.3711 16.8542C17.4973 16.5601 17.5682 16.2266 17.5771 15.8846C17.586 15.5425 17.5328 15.2028 17.4223 14.8968L18.8984 13.0244C19.1065 13.2257 19.3589 13.3191 19.6117 13.2883C19.8644 13.2576 20.1012 13.1046 20.2808 12.8561L22.9067 9.21459C22.9911 9.09786 23.0387 8.93943 23.039 8.77409C23.0393 8.60874 22.9923 8.45 22.9083 8.3327ZM6.73289 17.1335C6.60666 17.1335 6.48326 17.0816 6.37831 16.9843C6.27335 16.8871 6.19155 16.7488 6.14324 16.5871C6.09493 16.4254 6.0823 16.2474 6.10692 16.0757C6.13155 15.904 6.19233 15.7463 6.28159 15.6226C6.37085 15.4988 6.48457 15.4145 6.60837 15.3803C6.73218 15.3462 6.86051 15.3637 6.97713 15.4307C7.09375 15.4977 7.19342 15.6111 7.26355 15.7567C7.33368 15.9022 7.37111 16.0733 7.37111 16.2484C7.37091 16.4831 7.3036 16.708 7.18396 16.8739C7.06431 17.0399 6.90209 17.1332 6.73289 17.1335ZM8.75279 18.9708C8.73436 18.9949 8.71644 19.0194 8.69903 19.0442C8.57354 19.1967 8.41017 19.2753 8.24357 19.2634C8.07698 19.2515 7.92028 19.1501 7.80672 18.9806C7.69317 18.8112 7.63169 18.587 7.63535 18.3557C7.63901 18.1245 7.7075 17.9043 7.8263 17.7419C7.9451 17.5795 8.10486 17.4876 8.27167 17.4859C8.43848 17.4842 8.59921 17.5726 8.71976 17.7325C8.84031 17.8924 8.91119 18.1112 8.91736 18.3424C8.92352 18.5735 8.86449 18.7989 8.75279 18.9708ZM10.2681 21.135L10.262 21.1425L10.2558 21.152C10.1979 21.236 10.1287 21.3032 10.052 21.3501C9.97539 21.3969 9.89285 21.4223 9.80912 21.4249C9.64003 21.4301 9.47637 21.3419 9.35415 21.1797C9.29364 21.0995 9.24512 21.0034 9.21136 20.8971C9.17761 20.7908 9.15928 20.6764 9.15743 20.5603C9.15368 20.3258 9.21727 20.0988 9.33419 19.9293C9.35262 19.9052 9.37054 19.8807 9.38795 19.8558C9.51154 19.7051 9.67237 19.6266 9.83678 19.6366C10.0012 19.6466 10.1564 19.7444 10.27 19.9095C10.3837 20.0746 10.4468 20.2943 10.4463 20.5225C10.4458 20.7507 10.3817 20.9698 10.2673 21.1339L10.2681 21.135ZM16.5121 16.373C16.4051 16.5212 16.2601 16.6044 16.1089 16.6044C15.9577 16.6044 15.8127 16.5212 15.7057 16.373L14.7703 15.0757C14.7283 15.0175 14.6785 14.9713 14.6236 14.9397C14.5688 14.9082 14.51 14.8919 14.4507 14.8918C14.3913 14.8918 14.3325 14.908 14.2776 14.9394C14.2228 14.9709 14.1729 15.017 14.1309 15.0752C14.0889 15.1334 14.0555 15.2025 14.0328 15.2785C14.01 15.3546 13.9983 15.4361 13.9983 15.5184C13.9982 15.6008 14.0099 15.6823 14.0326 15.7584C14.0553 15.8345 14.0885 15.9036 14.1305 15.9619L15.066 17.2592C15.1623 17.4211 15.2121 17.6265 15.2059 17.8362C15.1997 18.0459 15.1379 18.2451 15.0324 18.3955C14.9269 18.546 14.785 18.6371 14.634 18.6515C14.4831 18.6658 14.3336 18.6024 14.2142 18.4734L13.3133 17.2911C13.2704 17.2348 13.2199 17.1907 13.1647 17.1614C13.1095 17.1321 13.0507 17.1181 12.9916 17.1203C12.9325 17.1226 12.8743 17.1409 12.8203 17.1743C12.7664 17.2077 12.7177 17.2556 12.677 17.3151C12.6364 17.3746 12.6046 17.4446 12.5834 17.5212C12.5623 17.5977 12.5523 17.6793 12.5539 17.7613C12.5555 17.8432 12.5687 17.9239 12.5928 17.9988C12.6169 18.0736 12.6514 18.1411 12.6943 18.1975L13.6751 19.4852C13.7223 19.5471 13.7603 19.6215 13.7867 19.704C13.813 19.7864 13.8273 19.8753 13.8287 19.9655C13.8301 20.0557 13.8185 20.1454 13.7947 20.2293C13.7708 20.3133 13.7352 20.3898 13.6898 20.4545C13.6445 20.5191 13.5903 20.5706 13.5305 20.606C13.4706 20.6414 13.4063 20.6599 13.3412 20.6605C13.2762 20.6611 13.2117 20.6437 13.1515 20.6095C13.0914 20.5752 13.0367 20.5246 12.9908 20.4608L12.5361 19.8303C12.4943 19.7723 12.4446 19.7263 12.39 19.6949C12.3354 19.6636 12.2769 19.6474 12.2177 19.6474C12.1586 19.6474 12.1001 19.6636 12.0454 19.6949C11.9908 19.7263 11.9412 19.7723 11.8994 19.8303C11.8576 19.8882 11.8244 19.9571 11.8018 20.0328C11.7792 20.1086 11.7675 20.1898 11.7675 20.2718C11.7675 20.3537 11.7792 20.4349 11.8018 20.5107C11.8244 20.5864 11.8576 20.6553 11.8994 20.7132L12.3717 21.3683C12.4153 21.4281 12.45 21.4992 12.4737 21.5777C12.4974 21.6562 12.5097 21.7403 12.5099 21.8254C12.5101 21.9105 12.4981 21.9947 12.4747 22.0734C12.4513 22.152 12.4169 22.2234 12.3736 22.2836C12.3302 22.3437 12.2787 22.3914 12.222 22.4239C12.1653 22.4563 12.1045 22.4729 12.0432 22.4726C11.9818 22.4724 11.9211 22.4553 11.8646 22.4225C11.808 22.3896 11.7567 22.3415 11.7135 22.281L11.1629 21.5174C11.2877 21.193 11.35 20.8293 11.3434 20.4617C11.3369 20.094 11.2619 19.735 11.1256 19.4196C10.9894 19.1041 10.7966 18.8429 10.566 18.6614C10.3353 18.4799 10.0748 18.3843 9.80959 18.3839C9.80838 17.8195 9.64615 17.2786 9.35835 16.8795C9.07055 16.4804 8.68056 16.2554 8.27354 16.2537H8.26817C8.26925 15.8854 8.20143 15.5229 8.07134 15.2018C7.94124 14.8806 7.75331 14.6117 7.52591 14.4214C7.2985 14.231 7.03938 14.1257 6.77386 14.1157C6.50833 14.1057 6.24547 14.1913 6.01094 14.3643L4.60699 12.4162L8.5869 6.89697L9.27812 7.85555C9.36241 7.97264 9.47678 8.03853 9.59608 8.03874H10.179L8.4018 10.5033C8.26822 10.6886 8.16225 10.9085 8.08995 11.1506C8.01766 11.3926 7.98045 11.6521 7.98045 11.914C7.98045 12.176 8.01766 12.4355 8.08995 12.6775C8.16225 12.9196 8.26822 13.1395 8.4018 13.3248C8.53539 13.51 8.69398 13.657 8.86852 13.7572C9.04306 13.8575 9.23013 13.9091 9.41905 13.9091C9.60797 13.9091 9.79504 13.8575 9.96958 13.7572C10.1441 13.657 10.3027 13.51 10.4363 13.3248L11.9432 11.2351L13.5929 11.2606L16.5114 15.2525C16.5647 15.3261 16.6071 15.4136 16.636 15.5099C16.6649 15.6062 16.6798 15.7095 16.6798 15.8138C16.6798 15.9182 16.6649 16.0215 16.636 16.1178C16.6071 16.2141 16.5647 16.3016 16.5114 16.3751L16.5121 16.373ZM16.8378 13.9457L14.0952 10.1934L14.0913 10.1881C14.0433 10.1221 13.9851 10.0721 13.9211 10.0416C13.8571 10.0112 13.7891 10.0012 13.7219 10.0123L11.7627 9.98252C11.7027 9.98175 11.6432 9.99755 11.5877 10.029C11.5322 10.0605 11.4818 10.1069 11.4393 10.1657L9.79807 12.4471C9.69714 12.5871 9.56025 12.6657 9.41752 12.6657C9.27478 12.6657 9.13789 12.5871 9.03696 12.4471C8.93603 12.3071 8.87933 12.1173 8.87933 11.9194C8.87933 11.7214 8.93603 11.5316 9.03696 11.3916L11.4509 8.04407H13.6297C13.7491 8.04386 13.8634 7.97796 13.9477 7.86087L14.5475 7.02904L18.2486 12.1617L16.8378 13.9457Z" fill="#828292"/>
<path d="M19.7252 9.68401C19.9734 9.68401 20.1745 9.40505 20.1745 9.06094C20.1745 8.71683 19.9734 8.43787 19.7252 8.43787C19.4771 8.43787 19.2759 8.71683 19.2759 9.06094C19.2759 9.40505 19.4771 9.68401 19.7252 9.68401Z" fill="#828292"/>
<path d="M3.26839 9.74725C3.51652 9.74725 3.71768 9.46829 3.71768 9.12417C3.71768 8.78006 3.51652 8.5011 3.26839 8.5011C3.02025 8.5011 2.81909 8.78006 2.81909 9.12417C2.81909 9.46829 3.02025 9.74725 3.26839 9.74725Z" fill="#828292"/>
<path d="M5.89802 1.9707C6.14616 1.9707 6.34732 1.69174 6.34732 1.34762C6.34732 1.00351 6.14616 0.724548 5.89802 0.724548C5.64989 0.724548 5.44873 1.00351 5.44873 1.34762C5.44873 1.69174 5.64989 1.9707 5.89802 1.9707Z" fill="#828292"/>
<path d="M17.134 1.92095C17.3821 1.92095 17.5833 1.64199 17.5833 1.29788C17.5833 0.953764 17.3821 0.674805 17.134 0.674805C16.8858 0.674805 16.6847 0.953764 16.6847 1.29788C16.6847 1.64199 16.8858 1.92095 17.134 1.92095Z" fill="#828292"/>
</g>
<defs>
<clipPath id="clip0_19_4513">
<rect width="24" height="24" fill="white" transform="translate(0 0.674805)"/>
</clipPath>
</defs>
</svg>
