<svg width="25" height="26" viewBox="0 0 25 26" fill="none" xmlns="http://www.w3.org/2000/svg">
<path fill-rule="evenodd" clip-rule="evenodd" d="M4.16667 19.25H20.8333C21.4062 19.25 21.875 18.7812 21.875 18.2083C21.875 17.6354 21.4062 17.1667 20.8333 17.1667H4.16667C3.59375 17.1667 3.125 17.6354 3.125 18.2083C3.125 18.7812 3.59375 19.25 4.16667 19.25ZM4.16667 14.0417H20.8333C21.4062 14.0417 21.875 13.5729 21.875 13C21.875 12.4271 21.4062 11.9583 20.8333 11.9583H4.16667C3.59375 11.9583 3.125 12.4271 3.125 13C3.125 13.5729 3.59375 14.0417 4.16667 14.0417ZM3.125 7.79167C3.125 8.36458 3.59375 8.83333 4.16667 8.83333H20.8333C21.4062 8.83333 21.875 8.36458 21.875 7.79167C21.875 7.21875 21.4062 6.75 20.8333 6.75H4.16667C3.59375 6.75 3.125 7.21875 3.125 7.79167Z" fill="#D9DAE1"/>
</svg>
