<svg width="24" height="25" viewBox="0 0 24 25" fill="none" xmlns="http://www.w3.org/2000/svg">
<path d="M22.1469 10.726H19.5069C19.3974 10.726 19.2924 10.7695 19.215 10.8469C19.1376 10.9244 19.0941 11.0294 19.0941 11.1388V13.222C19.0941 13.3315 19.1376 13.4365 19.215 13.5139C19.2924 13.5913 19.3974 13.6348 19.5069 13.6348C19.6164 13.6348 19.7214 13.5913 19.7988 13.5139C19.8762 13.4365 19.9197 13.3315 19.9197 13.222V11.5516H21.7341V22.4092H19.9197V16.3132C19.9197 16.2038 19.8762 16.0988 19.7988 16.0213C19.7214 15.9439 19.6164 15.9004 19.5069 15.9004C19.3974 15.9004 19.2924 15.9439 19.215 16.0213C19.1376 16.0988 19.0941 16.2038 19.0941 16.3132V22.4092H18.2397V13.8748C18.2397 13.7654 18.1962 13.6604 18.1188 13.5829C18.0414 13.5055 17.9364 13.462 17.8269 13.462H15.2157C15.1062 13.462 15.0012 13.5055 14.9238 13.5829C14.8464 13.6604 14.8029 13.7654 14.8029 13.8748V22.4092H13.9773V16.7548C13.9773 16.6454 13.9338 16.5404 13.8564 16.4629C13.779 16.3855 13.674 16.342 13.5645 16.342H10.9245C10.8158 16.3445 10.7122 16.3888 10.6353 16.4656C10.5584 16.5425 10.5141 16.6461 10.5117 16.7548V22.4092H9.6861V19.126C9.6861 19.0166 9.64261 18.9116 9.56519 18.8341C9.48778 18.7567 9.38278 18.7132 9.2733 18.7132H6.6333C6.52382 18.7132 6.41882 18.7567 6.3414 18.8341C6.26399 18.9116 6.2205 19.0166 6.2205 19.126V22.4092H2.6781C2.56862 22.4092 2.46362 22.3657 2.3862 22.2883C2.30879 22.2109 2.2653 22.1059 2.2653 21.9964V3.35324C2.2653 3.24376 2.30879 3.13876 2.3862 3.06134C2.46362 2.98393 2.56862 2.94044 2.6781 2.94044H13.3149V5.66684C13.3149 5.82902 13.347 5.98959 13.4093 6.13931C13.4717 6.28902 13.5631 6.42491 13.6782 6.53914C13.7933 6.65337 13.9299 6.74369 14.0801 6.80487C14.2303 6.86606 14.3911 6.8969 14.5533 6.89564H17.2797V11.974C17.2797 12.0835 17.3232 12.1885 17.4006 12.2659C17.478 12.3433 17.583 12.3868 17.6925 12.3868C17.802 12.3868 17.907 12.3433 17.9844 12.2659C18.0618 12.1885 18.1053 12.0835 18.1053 11.974V6.48284C18.1032 6.37415 18.0584 6.27066 17.9805 6.19484L14.0253 2.23964C13.9465 2.16029 13.8395 2.11541 13.7277 2.11484H2.6781C2.34965 2.11484 2.03466 2.24531 1.80242 2.47756C1.57017 2.7098 1.4397 3.02479 1.4397 3.35324V21.9964C1.4397 22.3249 1.57017 22.6399 1.80242 22.8721C2.03466 23.1044 2.34965 23.2348 2.6781 23.2348H22.1469C22.2564 23.2348 22.3614 23.1913 22.4388 23.1139C22.5162 23.0365 22.5597 22.9315 22.5597 22.822V11.1388C22.5597 11.0294 22.5162 10.9244 22.4388 10.8469C22.3614 10.7695 22.2564 10.726 22.1469 10.726ZM14.1405 3.55484L16.6941 6.10844H14.5533C14.4446 6.10599 14.341 6.06172 14.2641 5.98483C14.1872 5.90793 14.1429 5.80435 14.1405 5.69564V3.55484ZM8.8605 22.4092H7.0461V19.5292H8.8605V22.4092ZM13.1517 22.4092H11.3373V17.1676H13.1517V22.4092ZM17.4429 22.4092H15.6285V14.2876H17.4429V22.4092Z" fill="#828292"/>
<path d="M19.7952 14.403C19.7291 14.3412 19.6437 14.304 19.5534 14.2978C19.4632 14.2916 19.3735 14.3166 19.2996 14.3688C19.2256 14.4209 19.1719 14.4969 19.1474 14.584C19.123 14.6711 19.1292 14.764 19.1652 14.847C19.2012 14.93 19.2646 14.9981 19.3449 15.0398C19.4252 15.0815 19.5174 15.0942 19.606 15.0759C19.6946 15.0576 19.7742 15.0093 19.8314 14.9392C19.8886 14.8691 19.9198 14.7814 19.92 14.691C19.9179 14.5823 19.8731 14.4788 19.7952 14.403Z" fill="#828292"/>
<path d="M7.44976 4.37091C7.39555 4.37091 7.34187 4.38159 7.29179 4.40233C7.24171 4.42308 7.1962 4.45348 7.15787 4.49182C7.11954 4.53015 7.08913 4.57566 7.06838 4.62574C7.04764 4.67582 7.03696 4.7295 7.03696 4.78371V5.52291C6.31103 5.58994 5.61918 5.86223 5.04229 6.30795C4.4654 6.75367 4.02731 7.35439 3.77923 8.0399C3.53115 8.72541 3.48333 9.46737 3.64136 10.1791C3.79939 10.8907 4.15674 11.5427 4.67164 12.0588C5.18654 12.5749 5.83772 12.9337 6.54903 13.0934C7.26035 13.2531 8.00242 13.207 8.6885 12.9605C9.37457 12.7139 9.9763 12.2772 10.4233 11.7014C10.8704 11.1255 11.1443 10.4343 11.213 9.70851H11.9618C12.068 9.70863 12.1702 9.66778 12.2471 9.59447C12.324 9.52116 12.3696 9.42103 12.3746 9.31491C12.3758 8.66692 12.2494 8.02502 12.0026 7.42587C11.7558 6.82671 11.3934 6.28204 10.9361 5.82295C10.4788 5.36386 9.93553 4.99933 9.33735 4.75019C8.73916 4.50105 8.09776 4.37217 7.44976 4.37091ZM7.44976 12.2717C6.68403 12.2942 5.93927 12.0197 5.37142 11.5055C4.80356 10.9913 4.45664 10.2774 4.40329 9.51316C4.34995 8.74896 4.59431 7.99375 5.08523 7.40565C5.57614 6.81756 6.27553 6.44218 7.03696 6.35811V9.31491C7.03696 9.42439 7.08045 9.52939 7.15787 9.6068C7.23528 9.68422 7.34028 9.72771 7.44976 9.72771H10.3874C10.2838 10.4334 9.93029 11.0784 9.39112 11.5454C8.85195 12.0123 8.16301 12.2701 7.44976 12.2717ZM7.85296 8.88291V5.21571C8.79197 5.31402 9.66869 5.73197 10.3363 6.39958C11.0039 7.06718 11.4219 7.9439 11.5202 8.88291H7.85296Z" fill="#828292"/>
<path d="M11.9612 14.2492H4.07961C3.97013 14.2492 3.86513 14.2927 3.78772 14.3701C3.7103 14.4475 3.66681 14.5525 3.66681 14.662C3.66681 14.7715 3.7103 14.8765 3.78772 14.9539C3.86513 15.0313 3.97013 15.0748 4.07961 15.0748H11.9612C12.0707 15.0748 12.1757 15.0313 12.2531 14.9539C12.3305 14.8765 12.374 14.7715 12.374 14.662C12.3716 14.5533 12.3273 14.4497 12.2504 14.3728C12.1735 14.2959 12.0699 14.2517 11.9612 14.2492Z" fill="#828292"/>
<path d="M6.71961 16.246H4.07961C3.97013 16.246 3.86513 16.2895 3.78772 16.3669C3.7103 16.4443 3.66681 16.5493 3.66681 16.6588C3.66681 16.7683 3.7103 16.8733 3.78772 16.9507C3.86513 17.0281 3.97013 17.0716 4.07961 17.0716H6.71961C6.82909 17.0716 6.93409 17.0281 7.0115 16.9507C7.08892 16.8733 7.13241 16.7683 7.13241 16.6588C7.13241 16.5493 7.08892 16.4443 7.0115 16.3669C6.93409 16.2895 6.82909 16.246 6.71961 16.246Z" fill="#828292"/>
<path d="M9.08174 16.3612C9.00088 16.2862 8.8944 16.245 8.78414 16.246C8.7309 16.2453 8.67805 16.255 8.62862 16.2748C8.57919 16.2946 8.53416 16.3239 8.49614 16.3612C8.41679 16.44 8.37191 16.547 8.37134 16.6588C8.37378 16.7675 8.41806 16.8711 8.49495 16.948C8.57184 17.0249 8.67542 17.0692 8.78414 17.0716C8.88933 17.0825 8.99493 17.0552 9.08174 16.9948C9.119 16.9568 9.14837 16.9118 9.16814 16.8623C9.18791 16.8129 9.1977 16.76 9.19694 16.7068C9.20545 16.6442 9.1995 16.5805 9.17952 16.5206C9.15955 16.4607 9.1261 16.4062 9.08174 16.3612Z" fill="#828292"/>
</svg>
