<svg width="24" height="25" viewBox="0 0 24 25" fill="none" xmlns="http://www.w3.org/2000/svg">
<path fill-rule="evenodd" clip-rule="evenodd" d="M6.9375 18.0744C6.9375 17.743 7.20613 17.4744 7.5375 17.4744H13.4251C13.7565 17.4744 14.0251 17.743 14.0251 18.0744C14.0251 18.4057 13.7565 18.6744 13.4251 18.6744H7.5375C7.20613 18.6744 6.9375 18.4057 6.9375 18.0744ZM6.9375 13.2746C6.9375 12.9432 7.20613 12.6746 7.5375 12.6746H16.4626C16.794 12.6746 17.0626 12.9432 17.0626 13.2746C17.0626 13.6059 16.794 13.8746 16.4626 13.8746H7.5375C7.20613 13.8746 6.9375 13.6059 6.9375 13.2746ZM6.9375 8.47476C6.9375 8.14339 7.20613 7.87476 7.5375 7.87476H16.4626C16.794 7.87476 17.0626 8.14339 17.0626 8.47476C17.0626 8.80613 16.794 9.07476 16.4626 9.07476H7.5375C7.20613 9.07476 6.9375 8.80613 6.9375 8.47476ZM19 3.0748H14.82C14.4 1.6828 13.3 0.674805 12 0.674805C10.7 0.674805 9.6 1.6828 9.18 3.0748H5C4.86 3.0748 4.73 3.0868 4.6 3.1228C4.21 3.2188 3.86 3.4588 3.59 3.7828C3.41 3.9988 3.26 4.2628 3.16 4.5508C3.06 4.82681 3 5.1388 3 5.4748V22.2748C3 22.5988 3.06 22.9228 3.16 23.2108C3.26 23.4988 3.41 23.7508 3.59 23.9788C3.86 24.3028 4.21 24.5428 4.6 24.6388C4.73 24.6628 4.86 24.6748 5 24.6748H19C20.1 24.6748 21 23.5948 21 22.2748V5.4748C21 4.1548 20.1 3.0748 19 3.0748ZM19 21.6839C19 22.2312 18.5564 22.6748 18.0091 22.6748H5.99091C5.44364 22.6748 5 22.2312 5 21.6839V5.66571C5 5.11845 5.44364 4.6748 5.99091 4.6748H18.0091C18.5564 4.6748 19 5.11845 19 5.66571V21.6839Z" fill="#828292"/>
</svg>
