<svg width="24" height="24" viewBox="0 0 24 24" fill="none" xmlns="http://www.w3.org/2000/svg">
<path fill-rule="evenodd" clip-rule="evenodd" d="M10.2224 17.3994C10.7131 17.3994 11.1109 16.9966 11.1109 16.4997V11.0998C11.1109 10.603 10.7131 10.2002 10.2224 10.2002C9.73168 10.2002 9.33387 10.603 9.33387 11.0998V16.4997C9.33387 16.9966 9.73168 17.3994 10.2224 17.3994ZM19.1109 6.59957H15.5557V5.69995C15.5557 4.98388 15.2748 4.29713 14.7747 3.7908C14.2746 3.28446 13.5963 3 12.8891 3H11.112C9.63924 3 8.44533 4.20881 8.44533 5.69995V6.59957H4.88907C4.39805 6.59957 4 7.00258 4 7.49973C4 7.99688 4.39805 8.39989 4.88907 8.39989H5.7776V18.3001C5.7776 19.7912 6.97151 21 8.44427 21H15.5557C17.0285 21 18.2224 19.7912 18.2224 18.3001V8.39989H19.1109C19.602 8.39989 20 7.99688 20 7.49973C20 7.00258 19.602 6.59957 19.1109 6.59957ZM10.2224 5.69995C10.2224 5.46135 10.316 5.23253 10.4826 5.06382C10.6493 4.89511 10.8753 4.80032 11.1109 4.80032H12.8891C13.1247 4.80032 13.3507 4.89511 13.5174 5.06382C13.684 5.23253 13.7776 5.46135 13.7776 5.69995V6.59957H10.2224V5.69995ZM16.4443 18.3001C16.4443 18.7969 16.0465 19.1997 15.5557 19.1997H8.44533C7.95461 19.1997 7.5568 18.7969 7.5568 18.3001V8.39989H16.4453L16.4443 18.3001ZM13.7776 17.4004C14.0136 17.4007 14.2401 17.3059 14.407 17.1369C14.5738 16.968 14.6675 16.7387 14.6672 16.4997V11.0998C14.6672 10.6027 14.2692 10.1997 13.7781 10.1997C13.2871 10.1997 12.8891 10.6027 12.8891 11.0998V16.4997C12.8891 16.7385 12.9828 16.9675 13.1497 17.1362C13.3166 17.305 13.5428 17.3996 13.7787 17.3994L13.7776 17.4004Z" fill="#F7404E"/>
</svg>
