<svg width="15" height="16" viewBox="0 0 15 16" fill="none" xmlns="http://www.w3.org/2000/svg">
<path fill-rule="evenodd" clip-rule="evenodd" d="M6.94672 11.1562C7.23356 11.1562 7.46609 10.9207 7.46609 10.6303V7.47396C7.46609 7.18354 7.23356 6.94811 6.94672 6.94811C6.65989 6.94811 6.42736 7.18354 6.42736 7.47396V10.6303C6.42736 10.9207 6.65989 11.1562 6.94672 11.1562ZM12.1422 4.84345H10.0642V4.3176C10.0642 3.89904 9.89993 3.49763 9.60761 3.20166C9.31529 2.90569 8.91883 2.73942 8.50543 2.73942H7.46669C6.60583 2.73942 5.90797 3.446 5.90797 4.3176V4.84345H3.82925C3.54224 4.84345 3.30957 5.07902 3.30957 5.36961C3.30957 5.66021 3.54224 5.89578 3.82925 5.89578H4.34862V11.6826C4.34862 12.5542 5.04648 13.2608 5.90734 13.2608H10.0642C10.925 13.2608 11.6229 12.5542 11.6229 11.6826V5.89578H12.1422C12.4293 5.89578 12.6619 5.66021 12.6619 5.36961C12.6619 5.07902 12.4293 4.84345 12.1422 4.84345ZM6.94666 4.3176C6.94666 4.17814 7.00138 4.04438 7.09878 3.94577C7.19618 3.84715 7.32829 3.79175 7.46603 3.79175H8.50539C8.64313 3.79175 8.77524 3.84715 8.87264 3.94577C8.97004 4.04438 9.02476 4.17814 9.02476 4.3176V4.84345H6.94666V4.3176ZM10.5835 11.6826C10.5835 11.9731 10.3509 12.2085 10.0641 12.2085H5.9079C5.62106 12.2085 5.38853 11.9731 5.38853 11.6826V5.89578H10.5841L10.5835 11.6826ZM9.0248 11.1568C9.16277 11.157 9.29512 11.1015 9.39268 11.0028C9.49023 10.904 9.54496 10.77 9.5448 10.6303V7.47396C9.5448 7.18336 9.31213 6.94779 9.02512 6.94779C8.7381 6.94779 8.50544 7.18336 8.50544 7.47396V10.6303C8.50544 10.7699 8.56024 10.9037 8.65778 11.0024C8.75531 11.101 8.88757 11.1563 9.02543 11.1562L9.0248 11.1568Z" fill="#828292"/>
</svg>
