<svg width="24" height="25" viewBox="0 0 24 25" fill="none" xmlns="http://www.w3.org/2000/svg">
<g clip-path="url(#clip0_19_4532)">
<path d="M18.1181 10.2564C18.3637 9.55122 18.3297 8.7787 18.0231 8.09778C17.7165 7.41686 17.1606 6.87934 16.4697 6.59579C15.7789 6.31224 15.0056 6.30424 14.309 6.57342C13.6124 6.84261 13.0455 7.36851 12.7249 8.04294C12.2474 7.93247 11.7509 7.93247 11.2734 8.04294C10.9539 7.36705 10.3872 6.83955 9.69013 6.56926C8.99308 6.29897 8.21887 6.3065 7.52722 6.5903C6.83556 6.8741 6.2792 7.41252 5.97291 8.0945C5.66663 8.77647 5.63377 9.54998 5.88113 10.2555C5.47265 10.6324 5.14693 11.0901 4.9246 11.5995C4.70227 12.1089 4.58818 12.659 4.58955 13.2148V14.603C4.5898 15.0256 4.75767 15.4309 5.05634 15.7299C5.35501 16.0289 5.76009 16.1973 6.18272 16.198H7.47717V17.2234C7.47742 17.6859 7.66113 18.1294 7.98799 18.4566C8.31485 18.7838 8.75816 18.968 9.22066 18.9687H9.84108C9.96652 18.9687 10.0868 18.9189 10.1755 18.8302C10.2642 18.7415 10.314 18.6212 10.314 18.4958C10.314 18.3703 10.2642 18.2501 10.1755 18.1614C10.0868 18.0727 9.96652 18.0228 9.84108 18.0228H9.22066C9.00879 18.0226 8.80569 17.9382 8.65597 17.7883C8.50625 17.6384 8.42216 17.4353 8.42216 17.2234V15.6514C8.42038 14.727 8.77933 13.8384 9.42267 13.1746C9.72503 13.5709 10.1148 13.8921 10.5616 14.1132C11.0084 14.3343 11.5001 14.4494 11.9986 14.4494C12.4972 14.4494 12.989 14.3343 13.4357 14.1132C13.8825 13.8921 14.2723 13.5709 14.5746 13.1746C15.218 13.8384 15.5769 14.727 15.5751 15.6514V17.2234C15.5749 17.4354 15.4906 17.6385 15.3407 17.7884C15.1908 17.9383 14.9876 18.0226 14.7757 18.0228H14.161C14.0356 18.0228 13.9153 18.0727 13.8266 18.1614C13.7379 18.2501 13.688 18.3703 13.688 18.4958C13.688 18.6212 13.7379 18.7415 13.8266 18.8302C13.9153 18.9189 14.0356 18.9687 14.161 18.9687H14.7757C15.2384 18.9682 15.6821 18.7842 16.0093 18.457C16.3365 18.1298 16.5206 17.6861 16.5211 17.2234V16.2019H17.8146C18.2375 16.2014 18.6429 16.0331 18.9419 15.7341C19.2409 15.4351 19.4092 15.0297 19.4097 14.6068V13.2186C19.4115 12.6623 19.2976 12.1117 19.0753 11.6018C18.8529 11.0918 18.527 10.6337 18.1181 10.2564ZM7.49057 15.2512H6.17889C6.00689 15.2509 5.84203 15.1824 5.7205 15.0607C5.59897 14.939 5.53071 14.774 5.53071 14.6021V13.2138C5.52899 12.4349 5.82331 11.6844 6.3541 11.1143C6.6269 11.4559 6.97313 11.7318 7.3671 11.9214C7.76108 12.111 8.19269 12.2095 8.62992 12.2095C8.72248 12.2095 8.8147 12.2051 8.90662 12.1961C8.91906 12.2363 8.93247 12.2756 8.94683 12.3148C8.10944 13.0771 7.59101 14.1276 7.49536 15.256L7.49057 15.2512ZM8.75056 11.2043C8.75056 11.2234 8.75056 11.2416 8.75056 11.2607C8.71035 11.2607 8.66918 11.2607 8.62897 11.2607C8.27833 11.2609 7.93399 11.1675 7.63139 10.9904C7.3288 10.8133 7.07886 10.5587 6.90732 10.2529C6.73578 9.94709 6.64882 9.60111 6.6554 9.25055C6.66197 8.89999 6.76185 8.55751 6.94474 8.25836C7.12762 7.9592 7.38692 7.71419 7.69595 7.54852C8.00498 7.38285 8.35257 7.3025 8.70296 7.31577C9.05334 7.32903 9.39387 7.43541 9.68949 7.62397C9.98511 7.81252 10.2251 8.07644 10.3849 8.38856C9.88881 8.67339 9.47681 9.08427 9.19064 9.57957C8.90448 10.0749 8.75431 10.637 8.75534 11.209L8.75056 11.2043ZM11.9953 13.502C11.5408 13.502 11.0966 13.3673 10.7187 13.1148C10.3408 12.8623 10.0463 12.5034 9.87237 12.0836C9.69845 11.6637 9.65295 11.2017 9.74161 10.756C9.83027 10.3103 10.0491 9.90085 10.3705 9.5795C10.6918 9.25815 11.1013 9.03931 11.547 8.95065C11.9928 8.862 12.4548 8.9075 12.8746 9.08141C13.2945 9.25532 13.6534 9.54983 13.9059 9.92769C14.1584 10.3056 14.2931 10.7498 14.2931 11.2043C14.2944 11.5064 14.2361 11.8058 14.1214 12.0854C14.0068 12.365 13.8382 12.6192 13.6252 12.8335C13.4122 13.0478 13.159 13.218 12.8802 13.3344C12.6013 13.4507 12.3022 13.511 12.0001 13.5116L11.9953 13.502ZM13.6047 8.38664C13.7645 8.07449 14.0046 7.81054 14.3003 7.62199C14.5959 7.43343 14.9365 7.32706 15.2869 7.31384C15.6374 7.30062 15.985 7.38103 16.294 7.54677C16.603 7.71252 16.8623 7.95762 17.0452 8.25685C17.228 8.55608 17.3278 8.89863 17.3343 9.24923C17.3407 9.59984 17.2536 9.94583 17.082 10.2516C16.9103 10.5574 16.6602 10.8119 16.3575 10.9889C16.0548 11.1659 15.7104 11.2591 15.3597 11.2588C15.3195 11.2588 15.2793 11.2588 15.2391 11.2588C15.2391 11.2397 15.2391 11.2215 15.2391 11.2023C15.238 10.6323 15.0868 10.0726 14.8008 9.57946C14.5147 9.08637 14.1039 8.67728 13.6095 8.39334L13.6047 8.38664ZM18.4609 14.6001C18.4606 14.7722 18.3921 14.9372 18.2704 15.0589C18.1488 15.1805 17.9838 15.249 17.8117 15.2492H16.501C16.4029 14.1219 15.8828 13.0732 15.0447 12.3129C15.0591 12.2737 15.0725 12.2344 15.0849 12.1942C15.1762 12.2031 15.2678 12.2076 15.3597 12.2076C15.7971 12.2076 16.2288 12.1091 16.623 11.9195C17.0171 11.7299 17.3635 11.454 17.6365 11.1123C18.1675 11.682 18.4622 12.4322 18.4609 13.211V14.6001Z" fill="#828292"/>
<path d="M12.0012 18.0267C11.9079 18.0278 11.817 18.0565 11.74 18.1092C11.663 18.1618 11.6032 18.2361 11.5683 18.3226C11.5334 18.4091 11.5248 18.504 11.5437 18.5954C11.5626 18.6867 11.6081 18.7705 11.6745 18.836C11.7409 18.9016 11.8251 18.9461 11.9167 18.9639C12.0083 18.9817 12.1031 18.972 12.1892 18.936C12.2753 18.9001 12.3488 18.8394 12.4006 18.7618C12.4523 18.6841 12.4799 18.5929 12.4799 18.4996C12.48 18.4369 12.4677 18.3748 12.4435 18.3169C12.4194 18.259 12.3839 18.2065 12.3393 18.1625C12.2946 18.1185 12.2416 18.0838 12.1834 18.0605C12.1252 18.0372 12.0629 18.0257 12.0002 18.0267H12.0012Z" fill="#828292"/>
<path d="M22.3082 10.1023H21.5633C21.3428 9.27012 21.0138 8.47055 20.5848 7.72411L21.1172 7.1918C21.4329 6.87506 21.6102 6.44609 21.6102 5.99888C21.6102 5.55168 21.4329 5.12271 21.1172 4.80597L19.8629 3.55274C19.5464 3.23738 19.1178 3.06032 18.6709 3.06032C18.2241 3.06032 17.7955 3.23738 17.4789 3.55274L16.9456 4.08505C16.1915 3.64925 15.3827 3.3157 14.5406 3.09319V2.36078C14.54 1.91345 14.362 1.48463 14.0455 1.1685C13.729 0.852372 13.2999 0.674804 12.8526 0.674805L11.0794 0.674805C10.6324 0.675311 10.2039 0.853103 9.88778 1.16917C9.57169 1.48525 9.39389 1.91379 9.39339 2.36078V3.11425C8.56647 3.33956 7.77268 3.67238 7.03235 4.1042L6.51055 3.57859C6.19409 3.26271 5.76521 3.0853 5.31807 3.0853C4.87092 3.0853 4.44205 3.26271 4.12558 3.57859L2.86656 4.83182C2.5509 5.14839 2.37364 5.57721 2.37364 6.02425C2.37364 6.4713 2.5509 6.90011 2.86656 7.21669L3.40464 7.75475C2.98241 8.49206 2.65799 9.2812 2.43954 10.1023H1.68604C1.23903 10.1028 0.810474 10.2806 0.49439 10.5967C0.178306 10.9127 0.000506815 11.3413 0 11.7883L0 13.5604C0.000506815 14.0074 0.178306 14.4359 0.49439 14.752C0.810474 15.0681 1.23903 15.2459 1.68604 15.2464H2.44433C2.66641 16.0724 2.99569 16.8658 3.42378 17.6063L2.89145 18.1387C2.57603 18.4554 2.39893 18.8841 2.39893 19.3311C2.39893 19.7781 2.57603 20.2068 2.89145 20.5235L4.14473 21.7768C4.46157 22.0919 4.8903 22.2689 5.33722 22.2689C5.78413 22.2689 6.21287 22.0919 6.5297 21.7768L7.06203 21.2445C7.80438 21.6735 8.59976 22.0034 9.42785 22.2258V22.9821C9.42811 23.4294 9.60576 23.8583 9.92185 24.1747C10.2379 24.4911 10.6666 24.6693 11.1139 24.67H12.8861C13.3335 24.6695 13.7625 24.4915 14.0788 24.175C14.3951 23.8586 14.5729 23.4295 14.5731 22.9821V22.2229C15.4036 22.0024 16.2016 21.6737 16.9466 21.2454L17.4799 21.7777C17.7964 22.0931 18.225 22.2701 18.6719 22.2701C19.1187 22.2701 19.5473 22.0931 19.8639 21.7777L21.1191 20.5245C21.4345 20.2078 21.6116 19.779 21.6116 19.3321C21.6116 18.8851 21.4345 18.4563 21.1191 18.1396L20.5868 17.6073C21.0146 16.8666 21.3438 16.0733 21.5662 15.2473H22.3082C22.7555 15.2471 23.1844 15.0694 23.5008 14.7534C23.8173 14.4373 23.9954 14.0086 23.9962 13.5614V11.7883C23.9954 11.341 23.8173 10.9123 23.5008 10.5963C23.1844 10.2802 22.7555 10.1025 22.3082 10.1023ZM23.0502 13.5614C23.05 13.758 22.9717 13.9465 22.8326 14.0854C22.6934 14.2243 22.5048 14.3024 22.3082 14.3024H21.1938C21.0867 14.3025 20.9829 14.3389 20.8992 14.4057C20.8156 14.4725 20.7571 14.5657 20.7332 14.67C20.5087 15.648 20.1202 16.5809 19.5843 17.4292C19.5273 17.5199 19.5029 17.6273 19.5149 17.7338C19.5269 17.8402 19.5746 17.9394 19.6504 18.0152L20.4441 18.8088C20.5827 18.9481 20.6605 19.1365 20.6605 19.333C20.6605 19.5295 20.5827 19.718 20.4441 19.8572L19.1899 21.1104C19.0505 21.2485 18.8623 21.326 18.6661 21.326C18.47 21.326 18.2817 21.2485 18.1424 21.1104L17.3477 20.3167C17.2719 20.2412 17.1726 20.1936 17.0662 20.1817C16.9597 20.1699 16.8524 20.1945 16.7618 20.2516C15.9104 20.7889 14.9737 21.1774 13.9919 21.4005C13.8876 21.4243 13.7944 21.4829 13.7276 21.5665C13.6609 21.6502 13.6244 21.754 13.6243 21.861V22.9821C13.6243 23.1787 13.5462 23.3673 13.4073 23.5065C13.2683 23.6456 13.0799 23.7239 12.8832 23.7241H11.1139C10.9173 23.7239 10.7288 23.6456 10.5898 23.5065C10.4509 23.3673 10.3728 23.1787 10.3728 22.9821V21.8562C10.3727 21.7492 10.3363 21.6454 10.2695 21.5617C10.2027 21.4781 10.1095 21.4196 10.0052 21.3957C9.02543 21.172 8.09078 20.7835 7.24108 20.2468C7.15036 20.1899 7.04299 20.1654 6.93654 20.1774C6.8301 20.1894 6.73088 20.2372 6.65513 20.3129L5.86141 21.1066C5.72181 21.2445 5.53347 21.3219 5.33722 21.3219C5.14097 21.3219 4.95263 21.2445 4.81302 21.1066L3.5607 19.8562C3.49134 19.7872 3.4363 19.7051 3.39874 19.6148C3.36119 19.5244 3.34185 19.4275 3.34185 19.3297C3.34185 19.2318 3.36119 19.1349 3.39874 19.0445C3.4363 18.9542 3.49134 18.8721 3.5607 18.8031L4.35441 18.0094C4.43015 17.9337 4.47793 17.8344 4.48993 17.728C4.50193 17.6216 4.47744 17.5142 4.42047 17.4235C3.88403 16.5754 3.49554 15.6424 3.27155 14.6643C3.24772 14.5599 3.18919 14.4668 3.10554 14.4C3.02189 14.3332 2.91806 14.2968 2.81103 14.2966H1.68604C1.48958 14.2964 1.30124 14.2182 1.16232 14.0793C1.0234 13.9404 0.945241 13.7521 0.944988 13.5556V11.7883C0.945241 11.5918 1.0234 11.4035 1.16232 11.2646C1.30124 11.1256 1.48958 11.0475 1.68604 11.0472H2.81007C2.9174 11.0473 3.02156 11.0108 3.10542 10.9438C3.18928 10.8768 3.24787 10.7833 3.27155 10.6786C3.49166 9.70578 3.8746 8.77711 4.4042 7.93187C4.4608 7.84114 4.48499 7.73392 4.47282 7.62768C4.46065 7.52144 4.41283 7.42247 4.33718 7.3469L3.53772 6.54747C3.39886 6.40836 3.32087 6.21984 3.32087 6.0233C3.32087 5.82675 3.39886 5.63823 3.53772 5.49912L4.78717 4.24685C4.92637 4.10852 5.11464 4.03088 5.31089 4.03088C5.50713 4.03088 5.69541 4.10852 5.8346 4.24685L6.62257 5.03479C6.69857 5.11083 6.79821 5.15872 6.90507 5.17056C7.01193 5.18239 7.11964 5.15747 7.21044 5.09989C8.05804 4.56083 8.9911 4.16975 9.96976 3.94335C10.0738 3.91915 10.1665 3.86046 10.2329 3.77685C10.2993 3.69324 10.3355 3.58962 10.3355 3.48285V2.36078C10.3358 2.16432 10.4139 1.97599 10.5528 1.83708C10.6918 1.69816 10.8801 1.62001 11.0766 1.61975H12.8488C13.0452 1.62001 13.2336 1.69816 13.3725 1.83708C13.5114 1.97599 13.5896 2.16432 13.5898 2.36078V3.46561C13.5898 3.57307 13.6264 3.67733 13.6936 3.7612C13.7608 3.84508 13.8545 3.90359 13.9594 3.92708C14.9536 4.14746 15.9025 4.53705 16.7647 5.07883C16.8553 5.13591 16.9626 5.16056 17.069 5.14874C17.1755 5.13691 17.2748 5.08931 17.3506 5.01372L18.1462 4.22004C18.2856 4.08195 18.4738 4.00447 18.67 4.00447C18.8661 4.00447 19.0544 4.08195 19.1937 4.22004L20.447 5.47232C20.5163 5.54135 20.5714 5.6234 20.6089 5.71377C20.6465 5.80413 20.6658 5.90103 20.6658 5.99888C20.6658 6.09674 20.6465 6.19363 20.6089 6.284C20.5714 6.37436 20.5163 6.45642 20.447 6.52545L19.6533 7.31913C19.5775 7.39488 19.5297 7.4941 19.5177 7.60054C19.5057 7.70698 19.5302 7.81435 19.5872 7.90506C20.1249 8.75867 20.5134 9.69755 20.7361 10.6815C20.7598 10.7862 20.8184 10.8797 20.9022 10.9467C20.9861 11.0137 21.0903 11.0501 21.1976 11.0501H22.3082C22.5048 11.0501 22.6934 11.1281 22.8326 11.2671C22.9717 11.406 23.05 11.5945 23.0502 11.7911V13.5633V13.5614Z" fill="#828292"/>
</g>
<defs>
<clipPath id="clip0_19_4532">
<rect width="24" height="24" fill="white" transform="translate(0 0.674805)"/>
</clipPath>
</defs>
</svg>
