<svg width="30" height="39" viewBox="0 0 30 39" fill="none" xmlns="http://www.w3.org/2000/svg">
<path d="M29.0571 14.3484V33.5903C29.0571 34.7172 28.6137 35.7979 27.8244 36.5948C27.0352 37.3916 25.9647 37.8393 24.8485 37.8393H5.20856C4.09238 37.8393 3.02192 37.3916 2.23266 36.5948C1.4434 35.7979 1 34.7172 1 33.5903V5.26343C1 4.13652 1.4434 3.05576 2.23266 2.25892C3.02192 1.46207 4.09238 1.0144 5.20856 1.0144H15.4669C16.2108 1.01452 15.324 1.31286 15.8501 1.84385L28.2355 14.3484C28.7615 14.8795 29.057 13.5974 29.0571 14.3484Z" fill="#ADFFD0" stroke="#45C777" stroke-width="0.876783" stroke-linejoin="round"/>
<path d="M15.9053 1.0144C15.9053 5.0692 15.9053 11.3974 15.9053 11.3974C15.9053 12.1317 16.197 12.8359 16.7162 13.3552C17.2355 13.8744 17.9397 14.1662 18.6741 14.1662H29.057" fill="#45C777"/>
<path d="M15.9053 1.0144C15.9053 5.0692 15.9053 11.3974 15.9053 11.3974C15.9053 12.1317 16.197 12.8359 16.7162 13.3552C17.2355 13.8744 17.9397 14.1662 18.6741 14.1662H29.057L15.9053 1.0144Z" stroke="#45C777" stroke-width="1.75357" stroke-linecap="round" stroke-linejoin="round"/>
<path d="M8.06943 27.8244V32.0154C8.06943 32.6642 7.8853 33.164 7.51706 33.5147C7.15465 33.8654 6.66365 34.0408 6.04406 34.0408C5.39524 34.0408 4.87501 33.8566 4.48338 33.4884C4.09176 33.1201 3.89594 32.597 3.89594 31.9189H5.38647C5.38647 32.1761 5.43908 32.3719 5.54429 32.5064C5.64951 32.635 5.80148 32.6993 6.00022 32.6993C6.18142 32.6993 6.32171 32.6408 6.42108 32.5239C6.52045 32.407 6.57013 32.2375 6.57013 32.0154V27.8244H8.06943ZM13.9713 29.8059C13.9713 30.1625 13.8894 30.4898 13.7258 30.7879C13.5621 31.0802 13.3108 31.3169 12.9717 31.4981C12.6327 31.6793 12.2119 31.7699 11.7092 31.7699H10.7798V33.9794H9.28049V27.8244H11.7092C12.2002 27.8244 12.6152 27.9091 12.9542 28.0786C13.2932 28.2481 13.5475 28.482 13.717 28.7801C13.8865 29.0782 13.9713 29.4201 13.9713 29.8059ZM11.5952 30.5775C11.8816 30.5775 12.095 30.5102 12.2352 30.3758C12.3755 30.2414 12.4457 30.0514 12.4457 29.8059C12.4457 29.5604 12.3755 29.3704 12.2352 29.236C12.095 29.1015 11.8816 29.0343 11.5952 29.0343H10.7798V30.5775H11.5952ZM16.2511 29.0256V30.2706H18.259V31.4279H16.2511V32.7782H18.522V33.9794H14.7518V27.8244H18.522V29.0256H16.2511ZM23.5812 29.7708C23.4701 29.5662 23.3094 29.4113 23.0989 29.3061C22.8944 29.1951 22.6518 29.1395 22.3712 29.1395C21.8861 29.1395 21.4973 29.3003 21.2051 29.6218C20.9128 29.9374 20.7667 30.3612 20.7667 30.8931C20.7667 31.4601 20.9187 31.9043 21.2226 32.2258C21.5324 32.5415 21.9562 32.6993 22.494 32.6993C22.8622 32.6993 23.172 32.6058 23.4233 32.4187C23.6805 32.2317 23.8676 31.9628 23.9845 31.6121H22.0819V30.5073H25.3435V31.9014C25.2324 32.2755 25.0425 32.6233 24.7736 32.9448C24.5106 33.2663 24.1745 33.5264 23.7653 33.7251C23.3561 33.9239 22.8944 34.0232 22.38 34.0232C21.7721 34.0232 21.2285 33.8917 20.7492 33.6287C20.2757 33.3598 19.9045 32.9886 19.6356 32.5152C19.3726 32.0417 19.2411 31.501 19.2411 30.8931C19.2411 30.2852 19.3726 29.7445 19.6356 29.2711C19.9045 28.7918 20.2757 28.4206 20.7492 28.1575C21.2226 27.8887 21.7633 27.7542 22.3712 27.7542C23.1077 27.7542 23.7273 27.9325 24.23 28.2891C24.7385 28.6456 25.0746 29.1395 25.2383 29.7708H23.5812Z" fill="#45C777"/>
</svg>
