<svg width="30" height="39" viewBox="0 0 30 39" fill="none" xmlns="http://www.w3.org/2000/svg">
<path d="M29.0571 14.3341V33.576C29.0571 34.7029 28.6137 35.7837 27.8244 36.5805C27.0352 37.3774 25.9647 37.825 24.8485 37.825H5.20856C4.09238 37.825 3.02192 37.3774 2.23266 36.5805C1.4434 35.7837 1 34.7029 1 33.576V5.24915C1 4.12224 1.4434 3.04148 2.23266 2.24463C3.02192 1.44779 4.09238 1.00012 5.20856 1.00012H15.4669C16.2108 1.00024 15.324 1.29858 15.8501 1.82957L28.2355 14.3341C28.7615 14.8652 29.057 13.5831 29.0571 14.3341Z" fill="#BDEEFF" stroke="#5B78FF" stroke-width="0.876783" stroke-linejoin="round"/>
<path d="M15.9053 1.00012C15.9053 5.05492 15.9053 11.3831 15.9053 11.3831C15.9053 12.1174 16.197 12.8217 16.7162 13.3409C17.2355 13.8602 17.9397 14.1519 18.6741 14.1519H29.057" fill="#5B78FF"/>
<path d="M15.9053 1.00012C15.9053 5.05492 15.9053 11.3831 15.9053 11.3831C15.9053 12.1174 16.197 12.8217 16.7162 13.3409C17.2355 13.8602 17.9397 14.1519 18.6741 14.1519H29.057L15.9053 1.00012Z" stroke="#5B78FF" stroke-width="1.75357" stroke-linecap="round" stroke-linejoin="round"/>
<path d="M14.1111 27.8101V29.0113H12.4803V33.9651H10.981V29.0113H9.35019V27.8101H14.1111ZM18.6338 33.9651L17.38 32.08L16.2752 33.9651H14.5742L16.547 30.835L14.5304 27.8101H16.2752L17.5115 29.6689L18.5987 27.8101H20.2996L18.3444 30.9139L20.3786 33.9651H18.6338ZM25.559 27.8101V29.0113H23.9282V33.9651H22.4289V29.0113H20.798V27.8101H25.559Z" fill="#5B78FF"/>
</svg>
