<svg width="30" height="39" viewBox="0 0 30 39" fill="none" xmlns="http://www.w3.org/2000/svg">
<path d="M29.0571 14.8412V34.0831C29.0571 35.21 28.6137 36.2908 27.8244 37.0877C27.0352 37.8845 25.9647 38.3322 24.8485 38.3322H5.20856C4.09238 38.3322 3.02192 37.8845 2.23266 37.0877C1.4434 36.2908 1 35.21 1 34.0831V5.75629C1 4.62938 1.4434 3.54862 2.23266 2.75177C3.02192 1.95493 4.09238 1.50726 5.20856 1.50726H15.4669C16.2108 1.50738 15.324 1.80572 15.8501 2.33671L28.2355 14.8412C28.7615 15.3723 29.057 14.0902 29.0571 14.8412Z" fill="#FFE0E0" stroke="#F7404E" stroke-width="0.876783" stroke-linejoin="round"/>
<path d="M15.9053 1.50726C15.9053 5.56206 15.9053 11.8902 15.9053 11.8902C15.9053 12.6246 16.197 13.3288 16.7162 13.8481C17.2355 14.3673 17.9397 14.659 18.6741 14.659H29.057" fill="#F7404E"/>
<path d="M15.9053 1.50726C15.9053 5.56206 15.9053 11.8902 15.9053 11.8902C15.9053 12.6246 16.197 13.3288 16.7162 13.8481C17.2355 14.3673 17.9397 14.659 18.6741 14.659H29.057L15.9053 1.50726Z" stroke="#F7404E" stroke-width="1.75357" stroke-linecap="round" stroke-linejoin="round"/>
<path d="M14.3211 28.3172V34.4722H12.8218V30.781L11.4453 34.4722H10.2353L8.85002 30.7722V34.4722H7.35072V28.3172H9.12182L10.8491 32.5784L12.5588 28.3172H14.3211ZM20.0901 30.2988C20.0901 30.6553 20.0083 30.9826 19.8446 31.2808C19.6809 31.573 19.4296 31.8097 19.0906 31.9909C18.7515 32.1721 18.3307 32.2628 17.828 32.2628H16.8986V34.4722H15.3993V28.3172H17.828C18.319 28.3172 18.734 28.402 19.073 28.5715C19.4121 28.741 19.6663 28.9748 19.8358 29.2729C20.0054 29.571 20.0901 29.913 20.0901 30.2988ZM17.714 31.0703C18.0004 31.0703 18.2138 31.0031 18.3541 30.8687C18.4944 30.7342 18.5645 30.5443 18.5645 30.2988C18.5645 30.0533 18.4944 29.8633 18.3541 29.7288C18.2138 29.5944 18.0004 29.5272 17.714 29.5272H16.8986V31.0703H17.714ZM20.7567 33.3324V32.1225L23.5273 28.1594H25.202V32.0348H25.9209V33.3324H25.202V34.4722H23.7027V33.3324H20.7567ZM23.8079 29.8078L22.3349 32.0348H23.8079V29.8078Z" fill="#F7404E"/>
</svg>
