<svg width="24" height="24" viewBox="0 0 24 24" fill="none" xmlns="http://www.w3.org/2000/svg">
<path d="M8.09591 10.7713C8.24326 10.9171 8.44215 10.9988 8.64941 10.9988C8.85668 10.9988 9.05557 10.9171 9.20291 10.7713L12.0199 7.99832L14.7989 10.7713C14.8719 10.844 14.9584 10.9016 15.0536 10.9408C15.1488 10.9801 15.2508 11.0002 15.3538 11C15.4568 10.9998 15.5587 10.9793 15.6538 10.9398C15.7489 10.9002 15.8352 10.8423 15.9079 10.7693C15.9806 10.6964 16.0382 10.6098 16.0774 10.5146C16.1167 10.4194 16.1368 10.3174 16.1366 10.2144C16.1364 10.1114 16.1159 10.0095 16.0764 9.91442C16.0368 9.81935 15.9789 9.733 15.9059 9.66032L12.5779 6.34332C12.5048 6.26994 12.4179 6.21171 12.3222 6.17198C12.2266 6.13225 12.124 6.1118 12.0204 6.1118C11.9168 6.1118 11.8143 6.13225 11.7186 6.17198C11.6229 6.21171 11.536 6.26994 11.4629 6.34332L8.09591 9.66032C8.02229 9.73289 7.96383 9.81937 7.92392 9.91473C7.88402 10.0101 7.86347 10.1124 7.86347 10.2158C7.86347 10.3192 7.88402 10.4215 7.92392 10.5169C7.96383 10.6123 8.02229 10.6987 8.09591 10.7713Z" fill="#C2CFE0"/>
<path d="M15.9061 13.2287C15.7588 13.0829 15.5599 13.0012 15.3526 13.0012C15.1454 13.0012 14.9465 13.0829 14.7991 13.2287L11.9811 15.9977L9.19913 13.2287C9.12618 13.156 9.03963 13.0984 8.94442 13.0592C8.84921 13.0199 8.7472 12.9998 8.64422 13C8.43624 13.0004 8.23693 13.0834 8.09013 13.2307C8.01745 13.3036 7.95984 13.3902 7.9206 13.4854C7.88137 13.5806 7.86127 13.6826 7.86145 13.7856C7.86183 13.9936 7.94481 14.1929 8.09213 14.3397L11.4201 17.6567C11.4932 17.7301 11.5801 17.7883 11.6758 17.828C11.7715 17.8677 11.874 17.8882 11.9776 17.8882C12.0812 17.8882 12.1838 17.8677 12.2795 17.828C12.3751 17.7883 12.462 17.7301 12.5351 17.6567L15.9061 14.3387C15.9798 14.2661 16.0382 14.1796 16.0781 14.0843C16.118 13.9889 16.1386 13.8866 16.1386 13.7832C16.1386 13.6798 16.118 13.5775 16.0781 13.4821C16.0382 13.3867 15.9798 13.3003 15.9061 13.2277V13.2287Z" fill="#C2CFE0"/>
</svg>
