<svg width="34" height="34" viewBox="0 0 34 34" fill="none" xmlns="http://www.w3.org/2000/svg">
<path fill-rule="evenodd" clip-rule="evenodd" d="M14.3949 7.51141C14.9648 8.08221 14.9798 9.0189 14.3949 9.5897L10.1012 13.7801H21.5432C25.6845 13.7801 29.0416 17.0564 29.0416 21.098V25.4531C29.0416 26.2614 28.3702 26.9166 27.5419 26.9166C26.7137 26.9166 26.0422 26.2614 26.0422 25.4531V21.098C26.0422 18.6731 24.028 16.7073 21.5432 16.7073H10.0505L14.3949 20.9471C14.9798 21.5179 14.9798 22.44 14.3949 23.0108C13.8101 23.5816 12.8653 23.5816 12.2804 23.0108L5.39691 16.2929C4.81203 15.7221 4.81203 14.8001 5.39691 14.2293L12.2804 7.51141C12.8653 6.94061 13.8101 6.94061 14.3949 7.51141Z" fill="#BCBFD0"/>
</svg>
