<svg width="19" height="19" viewBox="0 0 19 19" fill="none" xmlns="http://www.w3.org/2000/svg">
<path d="M12.6433 9.13379C12.6433 8.32129 12.3464 7.61816 11.7527 7.02441C11.1589 6.43066 10.4558 6.13379 9.64331 6.13379V4.11816C11.0183 4.11816 12.1902 4.61816 13.1589 5.61816C14.1589 6.58691 14.6589 7.75879 14.6589 9.13379H12.6433ZM16.6277 9.13379C16.6277 7.19629 15.9402 5.55566 14.5652 4.21191C13.2214 2.83691 11.5808 2.14941 9.64331 2.14941V0.133789C12.1433 0.133789 14.2683 1.00879 16.0183 2.75879C17.7683 4.50879 18.6433 6.63379 18.6433 9.13379H16.6277ZM17.6589 12.6494C17.9402 12.6494 18.1746 12.7432 18.3621 12.9307C18.5496 13.1182 18.6433 13.3525 18.6433 13.6338V17.1494C18.6433 17.4307 18.5496 17.665 18.3621 17.8525C18.1746 18.04 17.9402 18.1338 17.6589 18.1338C12.9714 18.1338 8.95581 16.4775 5.61206 13.165C2.29956 9.82129 0.643311 5.80566 0.643311 1.11816C0.643311 0.836914 0.737061 0.602539 0.924561 0.415039C1.11206 0.227539 1.34644 0.133789 1.62769 0.133789H5.14331C5.42456 0.133789 5.65894 0.227539 5.84644 0.415039C6.03394 0.602539 6.12769 0.836914 6.12769 1.11816V1.16504C6.12769 2.44629 6.31519 3.61816 6.69019 4.68066C6.75269 4.80566 6.78394 4.91504 6.78394 5.00879C6.78394 5.32129 6.67456 5.55566 6.45581 5.71191L4.25269 7.91504C4.87769 9.10254 5.83081 10.3525 7.11206 11.665C8.42456 12.9463 9.67456 13.8994 10.8621 14.5244L13.0652 12.3213C13.2839 12.1025 13.5183 11.9932 13.7683 11.9932C13.8621 11.9932 13.9714 12.0244 14.0964 12.0869C15.2214 12.4619 16.4089 12.6494 17.6589 12.6494Z" fill="white"/>
</svg>
