<svg width="25" height="24" viewBox="0 0 25 24" fill="none" xmlns="http://www.w3.org/2000/svg">
<path fill-rule="evenodd" clip-rule="evenodd" d="M11.7095 5L17.7095 5C18.2595 5 18.7095 5.45 18.7095 6L18.7095 18C18.7095 18.55 18.2595 19 17.7095 19L11.7095 19C11.1595 19 10.7095 19.45 10.7095 20C10.7095 20.55 11.1595 21 11.7095 21L18.7095 21C19.8095 21 20.7095 20.1 20.7095 19L20.7095 5C20.7095 3.9 19.8095 3 18.7095 3L11.7095 3C11.1595 3 10.7095 3.45 10.7095 4C10.7095 4.55 11.1595 5 11.7095 5ZM12.3795 11L10.4995 9.12C10.1095 8.73 10.1095 8.1 10.4995 7.71C10.8895 7.32 11.5195 7.32 11.9095 7.71L15.4995 11.3C15.8895 11.69 15.8895 12.32 15.4995 12.71L11.9095 16.3C11.5195 16.69 10.8895 16.69 10.4995 16.3C10.1095 15.91 10.1095 15.28 10.4995 14.89L12.3795 13L5.70947 13C5.15947 13 4.70947 12.55 4.70947 12C4.70947 11.45 5.15947 11 5.70947 11L12.3795 11Z" fill="#788693"/>
</svg>
