<svg width="24" height="25" viewBox="0 0 24 25" fill="none" xmlns="http://www.w3.org/2000/svg">
<g clip-path="url(#clip0_19_4541)">
<path d="M18.5019 0.674866H1.50183C0.673409 0.674866 0.00183105 1.34644 0.00183105 2.17487V14.1749C0.00183105 15.0033 0.673409 15.6749 1.50183 15.6749H8.00185V14.6749H1.50183C1.22569 14.6749 1.00182 14.451 1.00182 14.1749V2.17487C1.00182 1.89873 1.22569 1.67485 1.50183 1.67485H18.5019C18.778 1.67485 19.0019 1.89873 19.0019 2.17487V11.1749H20.0019V2.17487C20.0019 1.34644 19.3303 0.674866 18.5019 0.674866Z" fill="#828292"/>
<path d="M6.99968 15.1748H5.99969V18.1748H6.99968V15.1748Z" fill="#828292"/>
<path d="M3.50006 12.6748C3.22392 12.6748 3.00005 12.4509 3.00005 12.1748V11.1748H2.00006V12.1748C2.00006 13.0032 2.67164 13.6748 3.50006 13.6748H4.50005V12.6748H3.50006Z" fill="#828292"/>
<path d="M3.00005 9.1748H2.00006V10.1748H3.00005V9.1748Z" fill="#828292"/>
<path d="M18.2732 11.2658C17.2544 10.2468 15.8724 9.67427 14.4313 9.67432C11.431 9.67446 8.99893 12.1068 8.99902 15.107C8.99916 18.1073 11.4315 20.5394 14.4317 20.5393C15.8723 20.5393 17.2538 19.9671 18.2725 18.9485C20.3942 16.8272 20.3946 13.3876 18.2732 11.2658ZM14.4287 19.5398C11.9807 19.539 9.9969 17.5538 9.99774 15.1058C9.99859 12.6578 11.9837 10.674 14.4317 10.6748C15.6084 10.6716 16.7372 11.1398 17.5662 11.9748C18.3968 12.8063 18.8631 13.9336 18.8627 15.1088C18.8619 17.5568 16.8767 19.5407 14.4287 19.5398Z" fill="#828292"/>
<path d="M23.8535 22.4248L20.715 19.2873C20.6213 19.1936 20.4941 19.1408 20.3615 19.1408C20.2289 19.1409 20.1018 19.1936 20.0081 19.2873L18.6131 20.6823C18.4179 20.8776 18.4179 21.1941 18.6131 21.3893L21.7516 24.5283C21.8453 24.6221 21.9725 24.6748 22.1051 24.6748C22.2379 24.6744 22.3651 24.6211 22.4585 24.5268L23.8535 23.1318C24.0487 22.9365 24.0487 22.62 23.8535 22.4248ZM22.105 23.4678L19.6735 21.0358L20.3615 20.3478L22.793 22.7798L22.105 23.4678Z" fill="#828292"/>
<path d="M18.2734 18.2409L17.5663 18.948L19.3101 20.6917L20.0171 19.9846L18.2734 18.2409Z" fill="#828292"/>
<path d="M14.4999 11.6748V12.6748C15.88 12.6764 16.9983 13.7948 16.9999 15.1748H17.9999C17.9978 13.2427 16.432 11.677 14.4999 11.6748Z" fill="#828292"/>
<path d="M9.00017 17.6748H5.00018V18.6748H9.00017V17.6748Z" fill="#828292"/>
<path d="M7.4997 2.67484C6.67127 2.67484 5.99969 3.34641 5.99969 4.17484C5.99969 5.00326 6.67127 5.67484 7.4997 5.67484C8.32812 5.67484 8.9997 5.00326 8.9997 4.17484C8.9997 3.34641 8.32812 2.67484 7.4997 2.67484ZM7.4997 4.6748C7.22355 4.6748 6.99968 4.45093 6.99968 4.17479C6.99968 3.89865 7.22355 3.67477 7.4997 3.67477C7.77584 3.67477 7.99971 3.89865 7.99971 4.17479C7.99971 4.45098 7.77584 4.6748 7.4997 4.6748Z" fill="#828292"/>
<path d="M11 6.1748C10.1716 6.1748 9.5 6.84638 9.5 7.6748C9.5 8.50323 10.1716 9.17481 11 9.17481C11.8284 9.17481 12.5 8.50323 12.5 7.6748C12.5 6.84638 11.8284 6.1748 11 6.1748ZM11 8.17482C10.7239 8.17482 10.5 7.95095 10.5 7.6748C10.5 7.39866 10.7239 7.17479 11 7.17479C11.2761 7.17479 11.5 7.39866 11.5 7.6748C11.5 7.95095 11.2761 8.17482 11 8.17482Z" fill="#828292"/>
<path d="M6.64662 4.32143L4.14667 6.82138L4.85376 7.52847L7.35371 5.02852L6.64662 4.32143Z" fill="#828292"/>
<path d="M8.35113 4.32276L7.64404 5.02985L10.144 7.5298L10.8511 6.82271L8.35113 4.32276Z" fill="#828292"/>
<path d="M14.4999 2.67484C13.6715 2.67484 12.9999 3.34641 12.9999 4.17484C12.9999 5.00326 13.6715 5.67484 14.4999 5.67484C15.3283 5.67484 15.9999 5.00326 15.9999 4.17484C15.9999 3.34641 15.3283 2.67484 14.4999 2.67484ZM14.4999 4.6748C14.2237 4.6748 13.9999 4.45093 13.9999 4.17479C13.9999 3.89865 14.2237 3.67477 14.4999 3.67477C14.776 3.67477 14.9999 3.89865 14.9999 4.17479C14.9999 4.45098 14.776 4.6748 14.4999 4.6748Z" fill="#828292"/>
<path d="M13.6463 4.32314L11.1463 6.82309L11.8534 7.53018L14.3533 5.03023L13.6463 4.32314Z" fill="#828292"/>
</g>
<defs>
<clipPath id="clip0_19_4541">
<rect width="24" height="24" fill="white" transform="translate(0 0.674805)"/>
</clipPath>
</defs>
</svg>
