<svg width="24" height="24" viewBox="0 0 24 24" fill="none" xmlns="http://www.w3.org/2000/svg">
<path fill-rule="evenodd" clip-rule="evenodd" d="M3.99926 13.0001H20.0007C20.5503 13.0001 21 12.5501 21 12.0001C21 11.4501 20.5503 11.0001 20.0007 11.0001H3.99926C3.44967 11.0001 3 11.4501 3 12.0001C3 12.5501 3.44967 13.0001 3.99926 13.0001ZM3.99926 19.0001H12.348C12.8975 19.0001 13.3472 18.5501 13.3472 18.0001C13.3472 17.4501 12.8975 17.0001 12.348 17.0001H3.99926C3.44967 17.0001 3 17.4501 3 18.0001C3 18.5501 3.44967 19.0001 3.99926 19.0001ZM3 6.00012C3 6.55012 3.44967 7.00012 3.99926 7.00012H19.9903C20.5399 7.00012 20.9896 6.55012 20.9896 6.00012C20.9896 5.45012 20.5399 5.00012 19.9903 5.00012H3.99926C3.44967 5.00012 3 5.45012 3 6.00012Z" fill="#828292"/>
</svg>
