<svg width="25" height="24" viewBox="0 0 25 24" fill="none" xmlns="http://www.w3.org/2000/svg">
<path fill-rule="evenodd" clip-rule="evenodd" d="M9.64343 2.84603L9.76819 2.62788C10.4607 1.52286 11.7171 0.891856 13.0254 1.01523C14.6329 1.16682 15.9343 2.36639 16.2427 3.93959L16.2855 4.20497L16.4027 4.26064L16.7367 4.43385C16.9257 4.53806 17.1124 4.65105 17.2962 4.77239L17.5335 4.93497L17.5864 4.91668L17.7479 4.86658L17.9829 4.80683C19.5119 4.48002 21.0909 5.19348 21.8761 6.56669C22.7107 8.02649 22.4419 9.85421 21.2662 11.0088L21.1015 11.16L21.117 11.3254C21.1246 11.4241 21.1302 11.5203 21.134 11.615L21.1396 11.8965C21.1396 12.1435 21.1266 12.3892 21.0973 12.6858L21.0965 12.685L21.0859 12.7961C21.09 12.7585 21.0937 12.7218 21.0973 12.6858L21.8122 13.4277L21.9112 13.5405L22.0352 13.6968L22.1238 13.8208L22.1883 13.9168C22.8577 14.9782 22.8851 16.3451 22.2537 17.4463C21.4944 18.7707 19.9523 19.4306 18.4742 19.0557L17.5685 18.826L17.4165 18.935L17.0891 19.1487C16.9 19.266 16.7092 19.3744 16.5168 19.4737L16.2335 19.612L15.9567 20.5933L15.9123 20.7282L15.8471 20.8991L15.791 21.0284L15.7465 21.1237C15.1767 22.2668 13.9978 23 12.7095 23C11.184 23 9.84973 21.9792 9.43632 20.5085L9.18346 19.61L9.01626 19.5323L8.68218 19.3591C8.49319 19.2549 8.30654 19.1419 8.12275 19.0206L7.84146 18.826L6.85683 19.0759L6.71982 19.1041L6.53604 19.1332L6.39869 19.1484L6.29163 19.1573C5.02074 19.2292 3.80583 18.5636 3.16517 17.4463C2.40674 16.1235 2.61244 14.4538 3.67136 13.3575L4.32046 12.684L4.29939 12.43C4.28608 12.2451 4.2793 12.0683 4.2793 11.8965C4.2793 11.641 4.29425 11.376 4.32817 11.0442L4.32146 11.107L3.60669 10.3652L3.50772 10.2525L3.38376 10.0961L3.29516 9.97219L3.23066 9.87619C2.56118 8.81476 2.53379 7.44785 3.16517 6.34668C3.92453 5.02232 5.46658 4.36235 6.94473 4.73729L7.84946 4.96597L8.00241 4.85802L8.32984 4.64432C8.51896 4.52697 8.70974 4.41855 8.90212 4.31926L9.18546 4.17997L9.38763 3.46364L9.42955 3.33464L9.50141 3.14633L9.55936 3.0148L9.64343 2.84603ZM12.8376 3.00639L12.6993 2.99997C12.1953 3.00064 11.7294 3.26469 11.4629 3.68999L11.3896 3.82118L11.3316 3.95271L11.2897 4.08171L10.8492 5.64899L10.2476 5.89753L9.95923 6.02669C9.76713 6.11938 9.57541 6.22518 9.38429 6.34377L9.0981 6.53118L8.79319 6.7515L8.28019 7.13938L6.45299 6.6759L6.3131 6.64795C5.75278 6.56572 5.19074 6.83478 4.9002 7.3415C4.63318 7.80721 4.652 8.3807 4.92228 8.80923L5.01088 8.93318L5.10985 9.04595L6.41938 10.4016L6.31399 11.282L6.29456 11.5036C6.28428 11.6448 6.2793 11.7739 6.2793 11.8965C6.2793 12.019 6.28428 12.1482 6.29423 12.2865L6.31289 12.5011L6.41938 13.3913L5.10985 14.747L5.01469 14.8562C4.65931 15.3087 4.60826 15.9423 4.9002 16.4515C5.16949 16.9211 5.67433 17.1891 6.17864 17.1605L6.31599 17.1453L6.45299 17.1171L8.28997 16.6511L8.80618 17.0514L9.0835 17.2556C9.26967 17.3856 9.45824 17.5031 9.64795 17.6078L9.93321 17.7549L10.2476 17.8954L10.8492 18.144L11.3617 19.9673L11.4043 20.0955C11.613 20.6378 12.1297 21 12.7095 21C13.2434 21 13.727 20.6921 13.9566 20.2315L14.0128 20.1021L14.0572 19.9673L14.5698 18.144L15.1713 17.8954L15.4597 17.7663C15.6518 17.6736 15.8435 17.5678 16.0346 17.4492L16.3208 17.2618L16.6257 17.0415L17.1387 16.6536L18.9659 17.1171L19.1058 17.145C19.6661 17.2273 20.2282 16.9582 20.5187 16.4515C20.7857 15.9858 20.7669 15.4123 20.4966 14.9838L20.408 14.8598L20.3091 14.747L18.9992 13.391L19.1004 12.5555L19.1179 12.3744C19.1328 12.2008 19.1396 12.0475 19.1396 11.8965C19.1396 11.7622 19.1342 11.6262 19.1229 11.478L19.1013 11.2453L18.9851 10.288L19.7286 9.70184L19.8441 9.60181C20.3939 9.07933 20.525 8.23304 20.1398 7.55937C19.7809 6.93156 19.0673 6.62023 18.401 6.76265L18.2591 6.80016L18.1181 6.85051L17.2214 7.21356L16.6127 6.74156L16.3354 6.53733C16.1493 6.40736 15.9607 6.28983 15.771 6.18521L15.4857 6.03805L15.1713 5.89753L14.4646 5.60556L14.2948 4.41177L14.2668 4.26313C14.1062 3.58133 13.5337 3.07204 12.8376 3.00639ZM15.7095 12C15.7095 10.3478 14.3656 8.99997 12.7095 8.99997C11.0533 8.99997 9.70946 10.3478 9.70946 12C9.70946 13.6521 11.0533 15 12.7095 15C14.3656 15 15.7095 13.6521 15.7095 12Z" fill="#828292"/>
</svg>
