<svg width="24" height="25" viewBox="0 0 24 25" fill="none" xmlns="http://www.w3.org/2000/svg">
<path d="M19.4896 7.3848C19.3521 7.24395 19.169 7.15656 18.973 7.13825C18.777 7.11993 18.5809 7.17187 18.4196 7.2848C17.1696 8.1348 10.8996 12.4248 10.2296 13.0948C9.7549 13.5642 9.48609 14.203 9.48234 14.8707C9.47859 15.5383 9.74021 16.1801 10.2096 16.6548C10.6791 17.1295 11.3179 17.3983 11.9855 17.4021C12.6531 17.4058 13.2949 17.1442 13.7696 16.6748C14.4496 15.9948 18.7696 9.6748 19.5896 8.4748C19.704 8.31044 19.7567 8.11097 19.7384 7.91156C19.7201 7.71214 19.632 7.52559 19.4896 7.3848ZM12.5896 15.4548C12.4332 15.6113 12.2209 15.6992 11.9996 15.6992C11.7783 15.6992 11.5661 15.6113 11.4096 15.4548C11.2532 15.2983 11.1653 15.0861 11.1653 14.8648C11.1653 14.6435 11.2532 14.4313 11.4096 14.2748C11.6696 14.0148 13.4096 12.7448 15.6396 11.2748C14.1196 13.4148 12.8496 15.1948 12.5896 15.4548Z" fill="#828292"/>
<path d="M5.15987 18.7548L4.15987 19.2548C3.51276 18.1117 3.12372 16.8407 3.02007 15.5313C2.91641 14.2218 3.10066 12.9055 3.55987 11.6748L4.73987 12.2448C4.85341 12.295 4.97577 12.3221 5.09987 12.3248C5.25875 12.3238 5.41418 12.2783 5.54851 12.1935C5.68285 12.1086 5.79072 11.9878 5.85987 11.8448C5.95317 11.6455 5.96458 11.4177 5.89166 11.2101C5.81873 11.0025 5.66729 10.8319 5.46987 10.7348L4.29987 10.1648C5.03025 8.96574 6.03102 7.95421 7.22217 7.21104C8.41333 6.46787 9.76183 6.01368 11.1599 5.88478V7.13478C11.1599 7.24509 11.1816 7.35432 11.2238 7.45624C11.266 7.55815 11.3279 7.65075 11.4059 7.72875C11.4839 7.80675 11.5765 7.86863 11.6784 7.91084C11.7803 7.95306 11.8896 7.97478 11.9999 7.97478C12.1102 7.97478 12.2194 7.95306 12.3213 7.91084C12.4232 7.86863 12.5158 7.80675 12.5938 7.72875C12.6718 7.65075 12.7337 7.55815 12.7759 7.45624C12.8181 7.35432 12.8399 7.24509 12.8399 7.13478V5.88478C13.8338 5.98699 14.8037 6.25397 15.7099 6.67478C15.9128 6.76606 16.1436 6.7731 16.3517 6.69436C16.5598 6.61562 16.7282 6.45753 16.8199 6.25478C16.8649 6.15503 16.8897 6.04736 16.8929 5.93798C16.8962 5.82859 16.8777 5.71965 16.8387 5.61741C16.7997 5.51518 16.7408 5.42167 16.6655 5.34228C16.5902 5.26288 16.4999 5.19916 16.3999 5.15478C14.4142 4.25678 12.2019 3.98532 10.058 4.37658C7.9141 4.76785 5.94036 5.80325 4.39987 7.34478C2.64537 9.09067 1.55308 11.3927 1.31041 13.8559C1.06773 16.3192 1.68979 18.7901 3.06987 20.8448C3.14714 20.9592 3.25145 21.0529 3.37354 21.1174C3.49564 21.182 3.63177 21.2154 3.76987 21.2148C3.89772 21.217 4.02435 21.1896 4.13987 21.1348L5.84987 20.2948C6.04879 20.198 6.2011 20.0261 6.2733 19.817C6.3455 19.6079 6.33168 19.3787 6.23487 19.1798C6.13807 18.9809 5.96621 18.8286 5.75711 18.7564C5.54801 18.6842 5.31879 18.698 5.11987 18.7948L5.15987 18.7548Z" fill="#828292"/>
<path d="M21.7597 10.4748C21.668 10.272 21.4997 10.1139 21.2916 10.0352C21.0835 9.95645 20.8526 9.96349 20.6497 10.0548C20.5497 10.0991 20.4594 10.1629 20.3841 10.2423C20.3088 10.3217 20.2499 10.4152 20.2109 10.5174C20.1718 10.6196 20.1534 10.7286 20.1566 10.838C20.1599 10.9474 20.1847 11.055 20.2297 11.1548C20.8092 12.4403 21.0786 13.844 21.016 15.2527C20.9535 16.6614 20.5608 18.0357 19.8697 19.2648L18.7897 18.7548C18.6906 18.7082 18.5832 18.6815 18.4738 18.6764C18.3643 18.6713 18.2549 18.6877 18.1519 18.7249C18.0488 18.762 17.954 18.8191 17.873 18.8929C17.792 18.9666 17.7263 19.0556 17.6797 19.1548C17.6331 19.2539 17.6064 19.3613 17.6013 19.4707C17.5962 19.5802 17.6127 19.6895 17.6498 19.7926C17.687 19.8957 17.744 19.9904 17.8178 20.0714C17.8916 20.1525 17.9806 20.2182 18.0797 20.2648L19.8297 21.0948C19.9416 21.1498 20.065 21.1773 20.1897 21.1748C20.3278 21.1754 20.4639 21.142 20.586 21.0774C20.7081 21.0129 20.8124 20.9192 20.8897 20.8048C21.8999 19.2985 22.5099 17.5597 22.6621 15.7524C22.8143 13.9451 22.5037 12.1288 21.7597 10.4748Z" fill="#828292"/>
</svg>
