<svg width="24" height="25" viewBox="0 0 24 25" fill="none" xmlns="http://www.w3.org/2000/svg">
<path d="M16.7567 12.4558C16.9131 12.315 17.0011 12.124 17.0011 11.9248C17.0011 11.7256 16.9131 11.5346 16.7567 11.3938C16.6002 11.253 16.388 11.1739 16.1667 11.1739C15.9454 11.1739 15.7331 11.253 15.5767 11.3938L10.3333 16.1143L8.42333 14.3938C8.34585 14.3241 8.25387 14.2688 8.15264 14.231C8.05141 14.1933 7.94291 14.1739 7.83333 14.1739C7.72376 14.1739 7.61526 14.1933 7.51403 14.231C7.4128 14.2688 7.32081 14.3241 7.24333 14.3938C7.16585 14.4635 7.10439 14.5463 7.06246 14.6374C7.02053 14.7285 6.99895 14.8262 6.99895 14.9248C6.99895 15.0234 7.02053 15.1211 7.06246 15.2122C7.10439 15.3033 7.16585 15.3861 7.24333 15.4558L9.74333 17.7058C9.82074 17.7757 9.9127 17.8311 10.0139 17.8689C10.1152 17.9067 10.2237 17.9261 10.3333 17.9261C10.4429 17.9261 10.5515 17.9067 10.6527 17.8689C10.754 17.8311 10.8459 17.7757 10.9233 17.7058L16.7567 12.4558ZM9.5 0.674805C8.98279 0.674561 8.47823 0.818696 8.05585 1.08735C7.63347 1.356 7.31407 1.73594 7.14167 2.1748H4.5C3.83696 2.1748 3.20107 2.41186 2.73223 2.83381C2.26339 3.25577 2 3.82807 2 4.4248V22.4248C2 23.0215 2.26339 23.5938 2.73223 24.0158C3.20107 24.4377 3.83696 24.6748 4.5 24.6748H19.5C20.163 24.6748 20.7989 24.4377 21.2678 24.0158C21.7366 23.5938 22 23.0215 22 22.4248V4.4248C22 3.82807 21.7366 3.25577 21.2678 2.83381C20.7989 2.41186 20.163 2.1748 19.5 2.1748H16.8583C16.6859 1.73594 16.3665 1.356 15.9442 1.08735C15.5218 0.818696 15.0172 0.674561 14.5 0.674805H9.5ZM8.66667 2.9248C8.66667 2.72589 8.75446 2.53513 8.91074 2.39447C9.06702 2.25382 9.27899 2.1748 9.5 2.1748H14.5C14.721 2.1748 14.933 2.25382 15.0893 2.39447C15.2455 2.53513 15.3333 2.72589 15.3333 2.9248C15.3333 3.12372 15.2455 3.31448 15.0893 3.45513C14.933 3.59579 14.721 3.6748 14.5 3.6748H9.5C9.27899 3.6748 9.06702 3.59579 8.91074 3.45513C8.75446 3.31448 8.66667 3.12372 8.66667 2.9248ZM4.5 3.6748H7.14167C7.31407 4.11367 7.63347 4.49361 8.05585 4.76226C8.47823 5.03091 8.98279 5.17505 9.5 5.1748H14.5C15.0172 5.17505 15.5218 5.03091 15.9442 4.76226C16.3665 4.49361 16.6859 4.11367 16.8583 3.6748H19.5C19.721 3.6748 19.933 3.75382 20.0893 3.89447C20.2455 4.03513 20.3333 4.22589 20.3333 4.4248V22.4248C20.3333 22.6237 20.2455 22.8145 20.0893 22.9551C19.933 23.0958 19.721 23.1748 19.5 23.1748H4.5C4.27899 23.1748 4.06702 23.0958 3.91074 22.9551C3.75446 22.8145 3.66667 22.6237 3.66667 22.4248V4.4248C3.66667 4.22589 3.75446 4.03513 3.91074 3.89447C4.06702 3.75382 4.27899 3.6748 4.5 3.6748Z" fill="#828292"/>
</svg>
